<?xml version="1.0" encoding="utf-8"?>
<!-- Generator: Adobe Illustrator 25.1.0, SVG Export Plug-In . SVG Version: 6.00 Build 0)  -->
<svg version="1.1" id="Layer_4_copy_4" xmlns="http://www.w3.org/2000/svg" xmlns:xlink="http://www.w3.org/1999/xlink" x="0px"
	 y="0px" viewBox="0 0 34 34.51" style="enable-background:new 0 0 34 34.51;" xml:space="preserve">
<style type="text/css">
	.st0{fill:#FFFFFF;}
	.st1{fill:#07294C;}
</style>
<g>
	<circle class="st0" cx="17" cy="17.51" r="17"/>
	<g>
		<path class="st1" d="M16.81,17.51"/>
		<path class="st1" d="M16.91,33.63c-8.82,0-16-7.18-16-16c0-1.73,0.27-3.42,0.81-5.04l1.22,0.4c-0.5,1.49-0.75,3.05-0.75,4.64
			c0,8.12,6.6,14.72,14.72,14.72s14.72-6.6,14.72-14.72S25.02,2.91,16.91,2.91c-1.28,0-2.55,0.16-3.78,0.49L12.8,2.16
			c1.33-0.35,2.71-0.53,4.1-0.53c8.82,0,16,7.18,16,16S25.73,33.63,16.91,33.63z"/>
		<path class="st1" d="M13.82,8.53c0.97-0.33,2.01-0.51,3.08-0.51c5.3,0,9.6,4.3,9.6,9.6s-4.3,9.6-9.6,9.6s-9.6-4.3-9.6-9.6
			c0-1.09,0.18-2.14,0.52-3.11l9.1,3.11L13.82,8.53z"/>
		<path class="st1" d="M17.79,18.25c-0.32,0-0.63-0.21-0.74-0.53L11.13,1.07c-0.15-0.42,0.07-0.87,0.49-1.02
			c0.42-0.15,0.87,0.07,1.02,0.49l5.91,16.65c0.15,0.42-0.07,0.87-0.49,1.02C17.98,18.24,17.88,18.25,17.79,18.25z"/>
	</g>
</g>
</svg>
