<?xml version="1.0" encoding="utf-8"?>
<!-- Generator: Adobe Illustrator 25.1.0, SVG Export Plug-In . SVG Version: 6.00 Build 0)  -->
<svg version="1.1" id="Layer_4_copy_4" xmlns="http://www.w3.org/2000/svg" xmlns:xlink="http://www.w3.org/1999/xlink" x="0px"
	 y="0px" viewBox="0 0 34 34" style="enable-background:new 0 0 34 34;" xml:space="preserve">
<style type="text/css">
	.st0{fill:#FFFFFF;}
	.st1{fill:#07294C;}
</style>
<g>
	<circle class="st0" cx="17" cy="17" r="17"/>
	<g>
		<g>
			<g>
				<path class="st1" d="M16.16,7.4c0,0.12,0,0.2,0,0.29c0,3.04,0,6.08,0,9.12c0,0.36,0.11,0.64,0.37,0.89
					c2.16,2.16,4.32,4.32,6.48,6.48c0.06,0.06,0.14,0.09,0.21,0.14c-2.97,2.55-7.6,3.17-11.36,0.76c-3.78-2.41-5.39-7.09-3.9-11.3
					c0.74-2.1,2.07-3.75,3.95-4.95C13.19,8.02,14.61,7.54,16.16,7.4z"/>
				<path class="st1" d="M26.57,16.09c-2.88,0-5.77,0-8.66,0c0-2.88,0-5.77,0-8.69c2.05,0.2,3.85,0.97,5.4,2.3
					C25.53,11.6,26.49,14.28,26.57,16.09z"/>
				<path class="st1" d="M19.23,17.86c2.43,0,4.88,0,7.37,0c-0.19,1.98-0.92,3.72-2.15,5.23C22.71,21.34,20.97,19.59,19.23,17.86z"
					/>
			</g>
		</g>
		<path class="st1" d="M17,2.28c8.12,0,14.72,6.6,14.72,14.72S25.12,31.72,17,31.72S2.28,25.12,2.28,17S8.88,2.28,17,2.28 M17,1
			C8.16,1,1,8.16,1,17s7.16,16,16,16s16-7.16,16-16S25.84,1,17,1L17,1z"/>
	</g>
</g>
</svg>
