<?xml version="1.0" encoding="utf-8"?>
<!-- Generator: Adobe Illustrator 25.1.0, SVG Export Plug-In . SVG Version: 6.00 Build 0)  -->
<svg version="1.1" id="Layer_4_copy_4" xmlns="http://www.w3.org/2000/svg" xmlns:xlink="http://www.w3.org/1999/xlink" x="0px"
	 y="0px" viewBox="0 0 34 34" style="enable-background:new 0 0 34 34;" xml:space="preserve">
<style type="text/css">
	.st0{fill:#FFFFFF;}
	.st1{fill:#07294C;}
</style>
<g>
	<circle class="st0" cx="17" cy="17" r="17"/>
	<g>
		<path class="st1" d="M16.94,2.61c7.94,0,14.4,6.46,14.4,14.4s-6.46,14.4-14.4,14.4s-14.4-6.46-14.4-14.4S9,2.61,16.94,2.61
			 M16.94,1.36C8.3,1.36,1.29,8.37,1.29,17.01S8.3,32.66,16.94,32.66S32.6,25.66,32.6,17.01S25.59,1.36,16.94,1.36L16.94,1.36z"/>
		<path class="st1" d="M13.93,8.11c0.95-0.32,1.96-0.5,3.02-0.5c5.19,0,9.39,4.21,9.39,9.39s-4.21,9.39-9.39,9.39
			s-9.39-4.21-9.39-9.39c0-1.07,0.18-2.09,0.5-3.05l8.9,3.04L13.93,8.11z"/>
		<path class="st1" d="M20.44,33.24l-0.79-3.67c5.04-1.08,9.04-5.22,9.94-10.3l3.7,0.66C32.11,26.6,27.06,31.82,20.44,33.24z"/>
	</g>
</g>
</svg>
