<?xml version="1.0" encoding="UTF-8"?>
<svg xmlns="http://www.w3.org/2000/svg" xmlns:xlink="http://www.w3.org/1999/xlink" width="24pt" height="24pt" viewBox="0 0 24 24" version="1.1">
<g id="surface1">
<path style=" stroke:none;fill-rule:nonzero;fill:rgb(100%,100%,100%);fill-opacity:1;" d="M 12 0 C 5.375 0 0 5.371094 0 12 C 0 18.625 5.375 24 12 24 C 18.628906 24 24 18.625 24 12 C 24 5.371094 18.628906 0 12 0 M 12 0.960938 C 18.085938 0.960938 23.039063 5.914063 23.039063 12 C 23.039063 18.085938 18.085938 23.039063 12 23.039063 C 5.914063 23.039063 0.960938 18.085938 0.960938 12 C 0.960938 5.914063 5.914063 0.960938 12 0.960938 "/>
<path style=" stroke:none;fill-rule:nonzero;fill:rgb(100%,100%,100%);fill-opacity:1;" d="M 12 6.5 C 15.03125 6.5 17.5 8.96875 17.5 12 C 17.5 15.03125 15.03125 17.5 12 17.5 C 8.96875 17.5 6.5 15.03125 6.5 12 C 6.5 10.417969 7.167969 8.992188 8.242188 7.988281 L 6.824219 6.570313 C 5.394531 7.9375 4.5 9.863281 4.5 12 C 4.5 16.140625 7.855469 19.5 12 19.5 C 16.140625 19.5 19.5 16.140625 19.5 12 C 19.5 7.859375 16.140625 4.5 12 4.5 "/>
</g>
</svg>
