<?xml version="1.0" encoding="UTF-8" ?>
<!DOCTYPE svg PUBLIC "-//W3C//DTD SVG 1.1//EN" "http://www.w3.org/Graphics/SVG/1.1/DTD/svg11.dtd">
<svg width="24pt" height="24pt" viewBox="0 0 24 24" version="1.1" xmlns="http://www.w3.org/2000/svg">
<g id="#ffffffff">
<path fill="#ffffff" opacity="1.00" d=" M 9.68 0.00 L 13.78 0.00 C 18.83 0.84 22.73 4.83 24.00 9.70 L 24.00 14.17 C 22.89 19.01 19.08 22.77 14.31 24.00 L 10.23 24.00 C 5.17 23.18 1.28 19.18 0.00 14.31 L 0.00 9.80 C 1.13 4.99 4.92 1.24 9.68 0.00 M 9.29 1.20 C 3.12 2.69 -1.28 10.26 1.72 16.14 C 3.80 21.55 10.78 25.04 16.14 22.28 C 20.40 20.72 22.90 16.33 23.40 12.00 C 22.92 8.17 21.03 4.27 17.52 2.38 C 15.02 1.08 12.04 0.02 9.29 1.20 Z" />
<path fill="#ffffff" opacity="1.00" d=" M 9.29 5.37 C 11.90 4.44 15.11 4.87 17.06 6.94 C 19.96 9.72 19.75 15.02 16.57 17.51 C 13.52 20.12 8.25 19.46 6.09 16.02 C 3.58 12.48 5.16 6.89 9.29 5.37 M 9.37 7.68 C 9.23 10.56 9.23 13.44 9.37 16.32 C 11.92 15.08 14.35 13.61 16.68 12.00 C 14.34 10.39 11.92 8.92 9.37 7.68 Z" />
</g>
<g id="#092a4dfd">
<path fill="#092a4d" opacity="1.00" d=" M 9.29 1.20 C 12.04 0.02 15.02 1.08 17.52 2.38 C 21.03 4.27 22.92 8.17 23.40 12.00 C 22.90 16.33 20.40 20.72 16.14 22.28 C 10.78 25.04 3.80 21.55 1.72 16.14 C -1.28 10.26 3.12 2.69 9.29 1.20 M 9.29 5.37 C 5.16 6.89 3.58 12.48 6.09 16.02 C 8.25 19.46 13.52 20.12 16.57 17.51 C 19.75 15.02 19.96 9.72 17.06 6.94 C 15.11 4.87 11.90 4.44 9.29 5.37 Z" />
<path fill="#092a4d" opacity="1.00" d=" M 9.37 7.68 C 11.92 8.92 14.34 10.39 16.68 12.00 C 14.35 13.61 11.92 15.08 9.37 16.32 C 9.23 13.44 9.23 10.56 9.37 7.68 Z" />
</g>
</svg>
