<?xml version="1.0" encoding="utf-8"?>
<!-- Generator: Adobe Illustrator 25.1.0, SVG Export Plug-In . SVG Version: 6.00 Build 0)  -->
<svg version="1.1" id="Layer_4_copy_4" xmlns="http://www.w3.org/2000/svg" xmlns:xlink="http://www.w3.org/1999/xlink" x="0px"
	 y="0px" viewBox="0 0 34 34" style="enable-background:new 0 0 34 34;" xml:space="preserve">
<style type="text/css">
	.st0{fill:#FFFFFF;}
	.st1{fill:#07294C;}
</style>
<g>
	<circle class="st0" cx="17" cy="17" r="17"/>
	<g>
		<path class="st1" d="M17,2.28c8.12,0,14.72,6.6,14.72,14.72c0,8.12-6.6,14.72-14.72,14.72S2.28,25.12,2.28,17
			C2.28,8.88,8.88,2.28,17,2.28 M17,1C8.16,1,1,8.16,1,17s7.16,16,16,16s16-7.16,16-16S25.84,1,17,1L17,1z"/>
		<path class="st1" d="M26.6,17c0,1.09-0.18,2.14-0.52,3.11l-9.1-3.11l3.1,9.09c-0.97,0.33-2.01,0.51-3.08,0.51
			c-5.3,0-9.6-4.3-9.6-9.6c0-1.09,0.18-2.14,0.52-3.11l9.1,3.11l-3.1-9.09C14.88,7.58,15.92,7.4,17,7.4C22.3,7.4,26.6,11.7,26.6,17z
			"/>
	</g>
</g>
</svg>
