<?xml version="1.0" encoding="UTF-8"?>
<svg xmlns="http://www.w3.org/2000/svg" xmlns:xlink="http://www.w3.org/1999/xlink" width="24pt" height="24pt" viewBox="0 0 24 24" version="1.1">
<g id="surface1">
<path style=" stroke:none;fill-rule:nonzero;fill:rgb(100%,100%,100%);fill-opacity:1;" d="M 12 0 C 5.375 0 0 5.371094 0 12 C 0 18.625 5.375 24 12 24 C 18.628906 24 24 18.625 24 12 C 24 5.371094 18.628906 0 12 0 M 12 0.960938 C 18.085938 0.960938 23.039063 5.914063 23.039063 12 C 23.039063 18.085938 18.085938 23.039063 12 23.039063 C 5.914063 23.039063 0.960938 18.085938 0.960938 12 C 0.960938 5.914063 5.914063 0.960938 12 0.960938 "/>
<path style=" stroke:none;fill-rule:nonzero;fill:rgb(100%,100%,100%);fill-opacity:1;" d="M 6.1875 7.75 C 7.5 5.960938 9.613281 4.800781 12 4.800781 C 15.976563 4.800781 19.199219 8.023438 19.199219 12 C 19.199219 15.976563 15.976563 19.199219 12 19.199219 C 9.613281 19.199219 7.5 18.039063 6.1875 16.25 L 11.34375 16.25 C 11.757813 16.25 12.09375 15.914063 12.09375 15.5 C 12.09375 15.085938 11.757813 14.75 11.34375 14.75 L 5.34375 14.75 C 5.085938 14.125 4.910156 13.453125 4.839844 12.75 L 11.34375 12.75 C 11.757813 12.75 12.09375 12.414063 12.09375 12 C 12.09375 11.585938 11.757813 11.25 11.34375 11.25 L 4.839844 11.25 C 4.910156 10.546875 5.085938 9.875 5.34375 9.25 L 11.34375 9.25 C 11.757813 9.25 12.09375 8.914063 12.09375 8.5 C 12.09375 8.085938 11.757813 7.75 11.34375 7.75 "/>
</g>
</svg>
