<svg width="51" height="51" viewBox="0 0 51 51" fill="none" xmlns="http://www.w3.org/2000/svg">
<path d="M25.7611 50.75C12.0332 50.75 0.824097 39.5409 0.824097 25.687C0.824097 11.9591 12.0332 0.75 25.7611 0.75C39.4891 0.75 50.6981 11.9591 50.6981 25.687C50.8241 39.5409 39.615 50.75 25.7611 50.75ZM39.4891 17.2487C38.4815 17.7525 37.348 18.0044 36.2145 18.1304C37.348 17.5006 38.2296 16.3671 38.7334 14.9817C37.5999 15.6115 36.4664 16.1152 35.207 16.3671C34.1994 15.2336 32.6881 14.6039 31.1767 14.6039C28.0281 14.6039 25.6352 17.1228 25.6352 20.1455C25.6352 20.5233 25.6352 21.0271 25.7611 21.4049C21.1012 21.153 16.945 18.886 14.1742 15.6115C13.6704 16.4931 13.4186 17.3747 13.4186 18.3822C13.4186 20.2714 14.4261 22.0346 15.9374 23.0422C15.0558 23.0422 14.1742 22.7903 13.4186 22.2865C13.4186 22.2865 13.4186 22.2865 13.4186 22.4125C13.4186 25.1832 15.3077 27.3243 17.9526 27.954C17.4488 28.08 16.945 28.2059 16.4412 28.2059C16.0634 28.2059 15.6856 28.2059 15.4337 28.08C16.1893 30.347 18.2044 31.8583 20.5974 31.9843C18.7082 33.4956 16.3153 34.3772 13.6704 34.3772C13.1667 34.3772 12.7888 34.3772 12.2851 34.2513C14.8039 35.8885 17.7007 36.7701 20.8493 36.7701C31.1767 36.7701 36.7183 28.2059 36.7183 20.9011C36.7183 20.6492 36.7183 20.3974 36.7183 20.1455C37.7259 19.3898 38.7334 18.3822 39.4891 17.2487Z" fill="#329BC4"/>
</svg>
