<?xml version="1.0" encoding="UTF-8" standalone="no"?>
<!-- Created with Inkscape (http://www.inkscape.org/) -->

<svg
   version="1.1"
   id="svg2"
   xml:space="preserve"
   width="106.66667"
   height="70.400002"
   viewBox="0 0 106.66667 70.400002"
   sodipodi:docname="upload_cloud.ai"
   xmlns:inkscape="http://www.inkscape.org/namespaces/inkscape"
   xmlns:sodipodi="http://sodipodi.sourceforge.net/DTD/sodipodi-0.dtd"
   xmlns="http://www.w3.org/2000/svg"
   xmlns:svg="http://www.w3.org/2000/svg"><defs
     id="defs6"><clipPath
       clipPathUnits="userSpaceOnUse"
       id="clipPath16"><path
         d="M 0,52.8 H 80 V 0 H 0 Z"
         id="path14" /></clipPath></defs><sodipodi:namedview
     id="namedview4"
     pagecolor="#ffffff"
     bordercolor="#666666"
     borderopacity="1.0"
     inkscape:pageshadow="2"
     inkscape:pageopacity="0.0"
     inkscape:pagecheckerboard="0" /><g
     id="g8"
     inkscape:groupmode="layer"
     inkscape:label="upload_cloud"
     transform="matrix(1.3333333,0,0,-1.3333333,0,70.4)"><g
       id="g10"><g
         id="g12"
         clip-path="url(#clipPath16)"><g
           id="g18"
           transform="translate(79.9999,15.9261)"><path
             d="m 0,0 c -0.409,-1.529 -0.674,-3.104 -1.253,-4.578 -2.609,-6.633 -9.775,-11.452 -17.524,-11.346 -4.947,0.067 -9.894,0.012 -14.841,0.012 h -0.99 v 15.743 c 1.535,0 3.037,0 4.54,0 1.009,0 2.089,-0.152 2.663,0.894 0.553,1.008 -0.184,1.702 -0.759,2.424 -3.367,4.232 -6.738,8.462 -10.109,12.691 -1.139,1.428 -2.337,1.429 -3.473,0.003 -3.461,-4.345 -6.921,-8.691 -10.38,-13.037 -0.138,-0.172 -0.278,-0.344 -0.394,-0.528 -0.717,-1.139 0.016,-2.391 1.465,-2.431 1.587,-0.043 3.177,-0.014 4.764,-0.016 0.28,0 0.56,0 0.89,0 v -15.743 h -0.915 c -5.676,0 -11.352,0.026 -17.028,-0.007 -5.637,-0.033 -9.968,2.224 -13.229,6.243 -2.734,3.368 -3.898,7.195 -3.254,11.363 0.646,4.176 2.91,7.522 6.68,10.01 0.21,0.139 0.419,0.284 0.648,0.393 0.434,0.205 0.538,0.446 0.389,0.909 -2.194,6.82 3.603,13.397 11.403,12.925 0.976,-0.059 1.939,-0.303 2.946,-0.467 0.672,0.976 1.297,2.068 2.107,3.032 5.415,6.452 12.583,9.312 21.446,8.121 9.353,-1.257 16.609,-7.7 18.31,-16.113 0.275,-1.36 0.794,-1.833 2.224,-2.251 C -5.86,15.963 -1.503,10.937 -0.163,3.66 -0.121,3.431 -0.055,3.206 0,2.979 Z"
             style="fill:#00c8d5;fill-opacity:1;fill-rule:nonzero;stroke:none"
             id="path20" /></g></g></g></g></svg>
