<svg id="Layer_2_1_" xmlns="http://www.w3.org/2000/svg" xmlns:xlink="http://www.w3.org/1999/xlink" viewBox="0 0 500 500" style="enable-background:new 0 0 500 500"><style>.st0{fill:#ffcd00}.st1{fill:#fffa02}</style><path class="st0" d="M5e2 448.7H474.2V422.9H448.7V448.7H422.9v25.5H448.7V5e2h25.5V474.2H5e2z"/><path class="st1" d="M497.1 14.3H484.8V2H472.7V14.3H460.5V26.4H472.7V38.7H484.8V26.4H497.1z"/><g><path class="st0" d="M261.4 197.6c-2.6.0-5.1.6-7.4 1.9-11.7-15-18.2-33.7-18.2-52.9.0-47.4 38.6-86 86-86 5.8.0 11.5.6 17.1 1.7 2 .4 3.9-.9 4.3-2.8.4-2-.9-3.9-2.9-4.3-6.1-1.2-12.3-1.8-18.6-1.8-24.9.0-48.4 9.7-66 27.3s-27.3 41-27.3 66c0 21 7.1 41.4 20.1 57.8-1.7 2.5-2.6 5.4-2.6 8.5.0 4.1 1.6 7.9 4.5 10.8s6.7 4.5 10.8 4.5 7.9-1.6 10.8-4.5 4.5-6.7 4.5-10.8c0-4.1-1.6-7.9-4.5-10.8C269.3 199.1 265.4 197.6 261.4 197.6v0zM267 218.5c-1.5 1.5-3.5 2.4-5.7 2.4s-4.1-.8-5.7-2.4c-1.5-1.5-2.4-3.5-2.4-5.7s.8-4.2 2.4-5.7c1.5-1.5 3.5-2.4 5.7-2.4 2.1.0 4.1.8 5.7 2.4 1.5 1.5 2.4 3.5 2.4 5.7C269.4 215 268.5 217 267 218.5v0z"/><path class="st0" d="M395 88.7c4-5.9 3.3-14.1-1.9-19.3-2.9-2.9-6.7-4.5-10.8-4.5s-7.9 1.6-10.8 4.5c-2.9 2.9-4.5 6.7-4.5 10.8s1.6 7.9 4.5 10.8 6.7 4.5 10.8 4.5c2.6.0 5.1-.7 7.4-1.9 11.7 15.1 18.2 33.7 18.2 52.9.0 47.4-38.6 86-86 86-5.7.0-11.4-.6-17-1.7-2-.4-3.9.9-4.3 2.9-.4 2 .9 3.9 2.9 4.3 6 1.2 12.2 1.8 18.4 1.8 24.9.0 48.4-9.7 66-27.3s27.3-41.1 27.3-66C415.1 125.6 408 105.1 395 88.7v0zM376.6 85.9c-1.5-1.5-2.4-3.5-2.4-5.7s.8-4.2 2.4-5.7c1.5-1.5 3.5-2.3 5.7-2.3s4.2.8 5.7 2.3c3.1 3.1 3.1 8.2.0 11.3-1.5 1.5-3.5 2.3-5.7 2.3S378.1 87.4 376.6 85.9v0z"/><path class="st0" d="M306.8 209.2c0 2 1.6 3.6 3.6 3.6h22.8c2 0 3.6-1.6 3.6-3.6v-7.1c4.8-1.3 9.4-3.2 13.7-5.7l5 5c.7.7 1.6 1.1 2.6 1.1 1 0 1.9-.4 2.6-1.1l16.1-16.1c1.4-1.4 1.4-3.7.0-5.1l-5-5c2.5-4.3 4.4-8.9 5.7-13.7h7c2 0 3.6-1.6 3.6-3.6v-22.8c0-2-1.6-3.6-3.6-3.6h-7c-1.3-4.8-3.2-9.4-5.7-13.7l5-4.9c.7-.7 1.1-1.6 1.1-2.6s-.4-1.9-1.1-2.6l-16.1-16.1c-1.4-1.4-3.7-1.4-5.1.0l-5 4.9c-4.3-2.5-8.9-4.4-13.7-5.7v-7c0-2-1.6-3.6-3.6-3.6h-22.8c-2 0-3.6 1.6-3.6 3.6v7c-4.8 1.3-9.4 3.2-13.7 5.7l-5-4.9c-1.4-1.4-3.7-1.4-5.1.0l-16.1 16.1c-.7.7-1.1 1.6-1.1 2.6s.4 1.9 1.1 2.6l5 4.9c-2.5 4.3-4.4 8.9-5.7 13.7h-7c-2 0-3.6 1.6-3.6 3.6v22.8c0 1 .4 1.9 1.1 2.6.7.7 1.6 1.1 2.6 1.1h7c1.3 4.8 3.2 9.4 5.7 13.7l-5 5c-1.4 1.4-1.4 3.7.0 5.1l16.1 16.1c.7.7 1.6 1.1 2.6 1.1v0c1 0 1.9-.4 2.6-1.1l5-5c4.3 2.5 8.9 4.4 13.7 5.7L306.8 209.2v0zM294.5 188.8c-1.4-.9-3.3-.7-4.6.5l-4.4 4.4-11-11 4.4-4.4c1.2-1.2 1.4-3.1.5-4.6-3.3-5.1-5.6-10.7-6.9-16.7-.4-1.7-1.8-2.9-3.6-2.9h-6.3v-15.5h6.2c1.7.0 3.2-1.2 3.6-2.9 1.3-5.9 3.6-11.5 6.9-16.7.9-1.4.7-3.3-.5-4.6l-4.4-4.4 11-10.9 4.4 4.4c1.2 1.2 3.1 1.4 4.6.5 5.1-3.3 10.7-5.6 16.7-6.9 1.7-.4 2.9-1.8 2.9-3.6v-6.2h15.5v6.2c0 1.7 1.2 3.2 2.9 3.6 5.9 1.3 11.5 3.6 16.7 6.9 1.4.9 3.3.7 4.5-.5l4.4-4.4 11 10.9-4.4 4.4c-1.2 1.2-1.4 3.1-.5 4.6 3.3 5.1 5.6 10.7 6.9 16.7.4 1.7 1.8 2.9 3.6 2.9h6.3v15.5h-6.3c-1.7.0-3.2 1.2-3.6 2.9-1.3 5.9-3.6 11.6-6.9 16.7-.9 1.4-.7 3.3.5 4.6l4.4 4.4-11 11-4.4-4.4c-1.2-1.2-3.1-1.4-4.6-.5-5.1 3.3-10.7 5.6-16.7 6.9-1.7.4-2.9 1.8-2.9 3.6v6.3h-15.5v-6.3c0-1.7-1.2-3.2-2.9-3.6C305.3 194.5 299.7 192.1 294.5 188.8v0z"/><path class="st0" d="M351.9 146.6c0-16.6-13.5-30.1-30.1-30.1s-30.1 13.5-30.1 30.1 13.5 30.1 30.1 30.1S351.9 163.1 351.9 146.6v0zM299 146.6c0-12.6 10.2-22.8 22.8-22.8s22.8 10.2 22.8 22.8-10.2 22.8-22.8 22.8S299 159.1 299 146.6v0z"/><path class="st0" d="M355.4 67c1 0 1.9-.4 2.6-1.1s1.1-1.6 1.1-2.6c0-1-.4-1.9-1.1-2.6-.7-.7-1.6-1.1-2.6-1.1s-1.9.4-2.6 1.1c-.7.7-1.1 1.6-1.1 2.6.0 1 .4 1.9 1.1 2.6C353.5 66.7 354.4 67 355.4 67v0z"/><path class="st0" d="M288.4 226.1c-1 0-1.9.4-2.6 1.1-.7.7-1.1 1.6-1.1 2.6s.4 1.9 1.1 2.6c.7.7 1.6 1.1 2.6 1.1s1.9-.4 2.6-1.1c.7-.7 1.1-1.6 1.1-2.6s-.4-1.9-1.1-2.6S289.4 226.1 288.4 226.1v0z"/></g></svg>