<svg id="Layer_1" xmlns="http://www.w3.org/2000/svg" xmlns:xlink="http://www.w3.org/1999/xlink" viewBox="0 0 500 500" style="enable-background:new 0 0 500 500"><style>.st0{fill:#fffa02}.st1{fill:#ffcd00}</style><g><path class="st0" d="M351.76 357.14h-70.09c-8.31.0-15.07 6.76-15.07 15.07v1.51h-63.3c-4.99.0-9.04 4.06-9.04 9.04v59.54c0 4.99 4.06 9.04 9.04 9.04h3.89v11.56c0 1.52.92 2.9 2.33 3.48.47.19.96.29 1.44.29.98.0 1.94-.38 2.67-1.1l14.22-14.22h74.85c4.99.0 9.04-4.06 9.04-9.04V431h40.02c8.31.0 15.07-6.76 15.07-15.07v-43.71C366.84 363.91 360.08 357.14 351.76 357.14zM304.2 442.3c0 .83-.68 1.51-1.51 1.51h-76.41c-1 0-1.96.4-2.66 1.1l-8.89 8.89v-6.23c0-2.08-1.69-3.77-3.77-3.77h-7.66c-.83.0-1.51-.68-1.51-1.51v-59.54c0-.83.68-1.51 1.51-1.51h63.3v34.67c0 8.31 6.76 15.07 15.07 15.07h22.53V442.3zM359.3 415.93c0 4.16-3.38 7.54-7.54 7.54h-70.09c-4.16.0-7.54-3.38-7.54-7.54v-43.71c0-4.16 3.38-7.54 7.54-7.54h70.09c4.16.0 7.54 3.38 7.54 7.54V415.93z"/><path class="st0" d="M331.86 390.81l-25.79-14.89c-1.17-.67-2.6-.67-3.77.0-1.17.67-1.88 1.92-1.88 3.26v29.78c0 1.35.72 2.59 1.88 3.26.58.34 1.23.5 1.88.5.65.0 1.3-.17 1.88-.5l25.79-14.89c1.17-.67 1.88-1.92 1.88-3.26C333.74 392.73 333.03 391.48 331.86 390.81zM307.96 402.43V385.7l14.48 8.36L307.96 402.43z"/><path class="st0" d="M254.74 396.71h-37.68c-2.08.0-3.77 1.69-3.77 3.77s1.69 3.77 3.77 3.77h37.68c2.08.0 3.77-1.69 3.77-3.77S256.82 396.71 254.74 396.71z"/><path class="st0" d="M254.74 417.81c-.99.0-1.96.4-2.66 1.1-.7.7-1.1 1.67-1.1 2.66.0.99.4 1.96 1.1 2.66.7.7 1.67 1.1 2.66 1.1.99.0 1.96-.4 2.66-1.1.7-.7 1.1-1.67 1.1-2.66.0-.99-.4-1.96-1.1-2.66C256.7 418.21 255.73 417.81 254.74 417.81z"/><path class="st0" d="M240.61 417.81h-23.55c-2.08.0-3.77 1.69-3.77 3.77s1.69 3.77 3.77 3.77h23.55c2.08.0 3.77-1.69 3.77-3.77S242.69 417.81 240.61 417.81z"/></g><g><path class="st1" d="M91.28 272.02H75.62V287.68H60.81V272.02H45.16V257.21H60.81V241.56H75.62V257.21H91.28z"/><path class="st1" d="M91.28 152.86H75.62V168.51H60.81V152.86H45.16V138.05H60.81V122.39H75.62V138.05H91.28z"/><path class="st1" d="M91.28 33.69H75.62V49.35H60.81V33.69H45.16V18.88H60.81V3.23H75.62V18.88H91.28z"/><path class="st1" d="M191.65 272.02H175.99V287.68H161.18V272.02H145.53V257.21H161.18V241.56H175.99V257.21H191.65z"/><path class="st1" d="M191.65 152.86H175.99V168.51H161.18V152.86H145.53V138.05H161.18V122.39H175.99V138.05H191.65z"/></g></svg>