<svg id="Layer_1" xmlns="http://www.w3.org/2000/svg" xmlns:xlink="http://www.w3.org/1999/xlink" viewBox="0 0 500 500" style="enable-background:new 0 0 500 500"><style>.st0{fill:#fff;stroke:#fff;stroke-miterlimit:10}.st1{fill:#fffa02}</style><g><g><path class="st0" d="M277.9 413.74 300.31 373.93H307.03L284.62 413.74z"/></g><g><path class="st0" d="M253.71 413.74 276.12 373.93H282.84L260.43 413.74z"/></g><g><path class="st0" d="M229.52 413.74 251.93 373.93H258.65L236.24 413.74z"/></g><g><path class="st0" d="M205.33 413.74 227.74 373.93H234.46L212.06 413.74z"/></g><g><path class="st0" d="M181.14 413.74 203.55 373.93H210.27L187.86 413.74z"/></g><g><path class="st0" d="M156.95 413.74 179.36 373.93H186.09L163.68 413.74z"/></g><g><path class="st0" d="M132.76 413.74 155.17 373.93H161.9L139.49 413.74z"/></g><g><path class="st0" d="M108.57 413.74 130.98 373.93H137.71L115.3 413.74z"/></g><g><path class="st0" d="M84.38 413.74 106.79 373.93H113.52L91.11 413.74z"/></g><g><path class="st0" d="M60.19 413.74 82.6 373.93H89.33L66.92 413.74z"/></g><g><path class="st0" d="M36 413.74 58.41 373.93H65.14L42.73 413.74z"/></g><g><path class="st0" d="M11.82 413.74l22.4-39.81H40.95L18.54 413.74z"/></g></g><g><g><path class="st1" d="M428.73 191.77l-50.23-29c-1.11-.64-2.48-.64-3.59.0l-50.23 29c-1.11.64-1.79 1.83-1.79 3.11v25.87c0 1.28.68 2.47 1.79 3.11l12.33 7.12-12.33 7.12c-1.11.64-1.79 1.82-1.79 3.11v25.87c0 1.28.68 2.47 1.79 3.11l12.33 7.12-12.33 7.12c-1.11.64-1.79 1.83-1.79 3.11v25.87c0 1.28.68 2.47 1.79 3.11l50.23 29c.56.32 1.17.48 1.79.48s1.24-.16 1.79-.48l50.23-29c1.11-.64 1.79-1.83 1.79-3.11v-25.87c0-1.28-.68-2.47-1.79-3.11l-12.33-7.12 12.33-7.12c1.11-.64 1.79-1.83 1.79-3.11V241.2c0-1.28-.68-2.47-1.79-3.11l-12.33-7.12 12.33-7.12c1.11-.64 1.79-1.82 1.79-3.11v-25.87C430.53 193.59 429.84 192.41 428.73 191.77v0zM376.71 170.02l43.05 24.86-43.05 24.86-43.05-24.86L376.71 170.02zM330.07 201.09l43.05 24.86v17.59l-43.05-24.86V201.09zM330.07 247.41l43.05 24.86v17.59L330.07 265V247.41zM330.07 293.73l43.05 24.86v17.59l-43.05-24.86V293.73zM380.3 336.18v-17.59l43.05-24.86v17.59L380.3 336.18zM419.76 287.52l-43.05 24.86-43.05-24.86 10.53-6.08 30.73 17.74c.56.32 1.17.48 1.79.48s1.24-.16 1.79-.48l30.72-17.74L419.76 287.52zM380.3 289.86v-17.59l43.05-24.86V265L380.3 289.86zM419.76 241.2l-43.05 24.86-43.05-24.86 10.53-6.08 30.73 17.74c.56.32 1.17.48 1.79.48s1.24-.16 1.79-.48l30.73-17.74L419.76 241.2zM380.3 243.53v-17.59l43.05-24.86v17.59L380.3 243.53zm0 0"/></g><path class="st1" d="M452.77 255.53c-.94.0-1.87.38-2.54 1.05-.67.67-1.05 1.59-1.05 2.54.0.94.38 1.87 1.05 2.54.67.67 1.59 1.05 2.54 1.05.94.0 1.87-.38 2.54-1.05.67-.67 1.05-1.59 1.05-2.54.0-.95-.38-1.87-1.05-2.54C454.64 255.91 453.71 255.53 452.77 255.53v0zm0 0"/><path class="st1" d="M464.97 199.78c0-6.73-5.47-12.2-12.2-12.2-6.73.0-12.2 5.47-12.2 12.2.0 5.48 3.63 10.12 8.61 11.66v31.53c0 1.98 1.61 3.59 3.59 3.59s3.59-1.61 3.59-3.59v-31.53C461.34 209.9 464.97 205.26 464.97 199.78v0zM452.77 204.8c-2.77.0-5.02-2.25-5.02-5.02.0-2.77 2.25-5.02 5.02-5.02 2.77.0 5.02 2.25 5.02 5.02C457.79 202.55 455.54 204.8 452.77 204.8v0zm0 0"/><path class="st1" d="M300.65 325.48c-1.98.0-3.59 1.61-3.59 3.59v13.32c0 1.98 1.61 3.59 3.59 3.59 1.98.0 3.59-1.61 3.59-3.59v-13.32C304.24 327.09 302.63 325.48 300.65 325.48v0zm0 0"/><path class="st1" d="M300.65 257.53c-6.73.0-12.2 5.47-12.2 12.2.0 5.48 3.63 10.12 8.61 11.66v29.76c0 1.98 1.61 3.59 3.59 3.59 1.98.0 3.59-1.61 3.59-3.59v-29.76c4.98-1.54 8.61-6.18 8.61-11.66C312.85 263.01 307.38 257.53 300.65 257.53v0zM300.65 274.76c-2.77.0-5.02-2.25-5.02-5.02.0-2.77 2.25-5.02 5.02-5.02 2.77.0 5.02 2.25 5.02 5.02C305.67 272.5 303.42 274.76 300.65 274.76v0zm0 0"/></g></svg>