<svg id="Layer_3" xmlns="http://www.w3.org/2000/svg" xmlns:xlink="http://www.w3.org/1999/xlink" viewBox="0 0 500 500" style="enable-background:new 0 0 500 500"><style>.st0{fill:#fff}.st1{fill:#fffa02}</style><g><g><g><path class="st0" d="M6.94 9.89c-.54.0-1.04-.1-1.51-.32C4.95 9.38 4.51 9.1 4.13 8.72 3.79 8.37 3.5 7.93 3.28 7.46 3.1 6.99 3 6.45 3 5.95 3 4.91 3.41 3.9 4.13 3.17c.19-.19.41-.34.63-.5.19-.16.44-.25.66-.38.25-.1.5-.16.76-.22.5-.1 1.01-.1 1.51.0C7.94 2.13 8.2 2.2 8.45 2.29c.22.13.47.22.66.38.22.16.44.31.6.5.76.73 1.17 1.73 1.17 2.77.0.5-.09 1.04-.28 1.51-.22.47-.5.91-.88 1.26C8.98 9.47 7.98 9.89 6.94 9.89z"/></g><g><path class="st0" d="M3 468.36c0-2.17 1.76-3.94 3.94-3.94v0c2.17.0 3.94 1.76 3.94 3.94v0c0 2.17-1.76 3.94-3.94 3.94v0C4.76 472.3 3 470.53 3 468.36zM3 442.69c0-2.21 1.76-3.94 3.94-3.94v0c2.17.0 3.94 1.73 3.94 3.94v0c0 2.18-1.76 3.94-3.94 3.94v0C4.76 446.62 3 444.86 3 442.69zM3 416.98c0-2.17 1.76-3.94 3.94-3.94v0c2.17.0 3.94 1.77 3.94 3.94v0c0 2.17-1.76 3.94-3.94 3.94v0C4.76 420.92 3 419.16 3 416.98zM3 391.28c0-2.17 1.76-3.94 3.94-3.94v0c2.17.0 3.94 1.77 3.94 3.94v0c0 2.17-1.76 3.94-3.94 3.94v0C4.76 395.21 3 393.45 3 391.28zM3 365.61c0-2.17 1.76-3.94 3.94-3.94v0c2.17.0 3.94 1.76 3.94 3.94v0c0 2.17-1.76 3.94-3.94 3.94v0C4.76 369.54 3 367.78 3 365.61zM3 339.9c0-2.17 1.76-3.94 3.94-3.94v0c2.17.0 3.94 1.76 3.94 3.94v0c0 2.18-1.76 3.94-3.94 3.94v0C4.76 343.84 3 342.08 3 339.9zM3 314.23c0-2.17 1.76-3.94 3.94-3.94v0c2.17.0 3.94 1.77 3.94 3.94v0c0 2.18-1.76 3.94-3.94 3.94v0C4.76 318.17 3 316.41 3 314.23zM3 288.53c0-2.18 1.76-3.94 3.94-3.94v0c2.17.0 3.94 1.76 3.94 3.94v0c0 2.17-1.76 3.94-3.94 3.94v0C4.76 292.47 3 290.7 3 288.53zM3 262.86c0-2.18 1.76-3.94 3.94-3.94v0c2.17.0 3.94 1.76 3.94 3.94v0c0 2.17-1.76 3.94-3.94 3.94v0C4.76 266.79 3 265.03 3 262.86zM3 237.15c0-2.17 1.76-3.94 3.94-3.94v0c2.17.0 3.94 1.77 3.94 3.94v0c0 2.18-1.76 3.94-3.94 3.94v0C4.76 241.09 3 239.33 3 237.15zM3 211.45c0-2.17 1.76-3.94 3.94-3.94v0c2.17.0 3.94 1.77 3.94 3.94v0c0 2.17-1.76 3.94-3.94 3.94v0C4.76 215.39 3 213.62 3 211.45zM3 185.78c0-2.18 1.76-3.94 3.94-3.94v0c2.17.0 3.94 1.76 3.94 3.94v0c0 2.17-1.76 3.94-3.94 3.94v0C4.76 189.72 3 187.95 3 185.78zM3 160.07c0-2.17 1.76-3.94 3.94-3.94v0c2.17.0 3.94 1.76 3.94 3.94v0c0 2.17-1.76 3.94-3.94 3.94v0C4.76 164.01 3 162.25 3 160.07zM3 134.4c0-2.17 1.76-3.94 3.94-3.94v0c2.17.0 3.94 1.77 3.94 3.94v0c0 2.17-1.76 3.94-3.94 3.94v0C4.76 138.34 3 136.58 3 134.4zM3 108.7c0-2.17 1.76-3.94 3.94-3.94v0c2.17.0 3.94 1.77 3.94 3.94v0c0 2.18-1.76 3.94-3.94 3.94v0C4.76 112.63 3 110.87 3 108.7zM3 83c0-2.14 1.76-3.94 3.94-3.94v0c2.17.0 3.94 1.79 3.94 3.94v0c0 2.2-1.76 3.94-3.94 3.94v0C4.76 86.93 3 85.2 3 83zM3 57.32c0-2.18 1.76-3.94 3.94-3.94v0c2.17.0 3.94 1.76 3.94 3.94v0c0 2.17-1.76 3.94-3.94 3.94v0C4.76 61.26 3 59.5 3 57.32zM3 31.65c0-2.2 1.76-3.94 3.94-3.94v0c2.17.0 3.94 1.73 3.94 3.94v0c0 2.14-1.76 3.94-3.94 3.94v0C4.76 35.59 3 33.79 3 31.65z"/></g><g><path class="st0" d="M6.94 498c-1.04.0-2.05-.41-2.77-1.17C3.41 496.11 3 495.1 3 494.06c0-.25.03-.54.1-.79.03-.25.12-.5.22-.73.09-.25.22-.47.35-.69.16-.19.32-.41.5-.6.91-.91 2.27-1.32 3.53-1.07.25.06.5.13.76.22.22.09.47.22.66.38.22.13.44.31.63.47.16.19.32.41.47.6.13.22.25.44.35.69.13.22.19.47.25.73.03.25.06.54.06.79.0.5-.09 1.01-.28 1.51-.22.47-.5.88-.85 1.26C8.98 497.59 7.98 498 6.94 498z"/></g></g><g><g><path class="st0" d="M28.92 9.89c-.5.0-1.01-.1-1.48-.32-.5-.19-.91-.47-1.29-.85-.38-.35-.66-.79-.85-1.26-.19-.5-.32-1.01-.32-1.51.0-1.04.44-2.05 1.17-2.77.19-.19.38-.34.6-.5.22-.16.44-.25.69-.38.22-.1.47-.16.72-.22.5-.1 1.04-.1 1.54.0.25.06.5.13.72.22.25.13.47.22.69.38.22.16.41.31.6.5.72.73 1.13 1.73 1.13 2.77.0.5-.09 1.04-.28 1.51-.19.47-.47.91-.85 1.26C30.97 9.47 29.99 9.89 28.92 9.89z"/></g><g><path class="st0" d="M24.99 468.36c0-2.17 1.76-3.94 3.94-3.94v0c2.17.0 3.94 1.76 3.94 3.94v0c0 2.17-1.76 3.94-3.94 3.94v0C26.75 472.3 24.99 470.53 24.99 468.36zM24.99 442.69c0-2.21 1.76-3.94 3.94-3.94v0c2.17.0 3.94 1.73 3.94 3.94v0c0 2.18-1.76 3.94-3.94 3.94v0C26.75 446.62 24.99 444.86 24.99 442.69zM24.99 416.98c0-2.17 1.76-3.94 3.94-3.94v0c2.17.0 3.94 1.77 3.94 3.94v0c0 2.17-1.76 3.94-3.94 3.94v0C26.75 420.92 24.99 419.16 24.99 416.98zM24.99 391.28c0-2.17 1.76-3.94 3.94-3.94v0c2.17.0 3.94 1.77 3.94 3.94v0c0 2.17-1.76 3.94-3.94 3.94v0C26.75 395.21 24.99 393.45 24.99 391.28zM24.99 365.61c0-2.17 1.76-3.94 3.94-3.94v0c2.17.0 3.94 1.76 3.94 3.94v0c0 2.17-1.76 3.94-3.94 3.94v0C26.75 369.54 24.99 367.78 24.99 365.61zM24.99 339.9c0-2.17 1.76-3.94 3.94-3.94v0c2.17.0 3.94 1.76 3.94 3.94v0c0 2.18-1.76 3.94-3.94 3.94v0C26.75 343.84 24.99 342.08 24.99 339.9zM24.99 314.23c0-2.17 1.76-3.94 3.94-3.94v0c2.17.0 3.94 1.77 3.94 3.94v0c0 2.18-1.76 3.94-3.94 3.94v0C26.75 318.17 24.99 316.41 24.99 314.23zM24.99 288.53c0-2.18 1.76-3.94 3.94-3.94v0c2.17.0 3.94 1.76 3.94 3.94v0c0 2.17-1.76 3.94-3.94 3.94v0C26.75 292.47 24.99 290.7 24.99 288.53zM24.99 262.86c0-2.18 1.76-3.94 3.94-3.94v0c2.17.0 3.94 1.76 3.94 3.94v0c0 2.17-1.76 3.94-3.94 3.94v0C26.75 266.79 24.99 265.03 24.99 262.86zM24.99 237.15c0-2.17 1.76-3.94 3.94-3.94v0c2.17.0 3.94 1.77 3.94 3.94v0c0 2.18-1.76 3.94-3.94 3.94v0C26.75 241.09 24.99 239.33 24.99 237.15zM24.99 211.45c0-2.17 1.76-3.94 3.94-3.94v0c2.17.0 3.94 1.77 3.94 3.94v0c0 2.17-1.76 3.94-3.94 3.94v0C26.75 215.39 24.99 213.62 24.99 211.45zM24.99 185.78c0-2.18 1.76-3.94 3.94-3.94v0c2.17.0 3.94 1.76 3.94 3.94v0c0 2.17-1.76 3.94-3.94 3.94v0C26.75 189.72 24.99 187.95 24.99 185.78zM24.99 160.07c0-2.17 1.76-3.94 3.94-3.94v0c2.17.0 3.94 1.76 3.94 3.94v0c0 2.17-1.76 3.94-3.94 3.94v0C26.75 164.01 24.99 162.25 24.99 160.07zM24.99 134.4c0-2.17 1.76-3.94 3.94-3.94v0c2.17.0 3.94 1.77 3.94 3.94v0c0 2.17-1.76 3.94-3.94 3.94v0C26.75 138.34 24.99 136.58 24.99 134.4zM24.99 108.7c0-2.17 1.76-3.94 3.94-3.94v0c2.17.0 3.94 1.77 3.94 3.94v0c0 2.18-1.76 3.94-3.94 3.94v0C26.75 112.63 24.99 110.87 24.99 108.7zM24.99 83c0-2.14 1.76-3.94 3.94-3.94v0c2.17.0 3.94 1.79 3.94 3.94v0c0 2.2-1.76 3.94-3.94 3.94v0C26.75 86.93 24.99 85.2 24.99 83zm0-25.68c0-2.18 1.76-3.94 3.94-3.94v0c2.17.0 3.94 1.76 3.94 3.94v0c0 2.17-1.76 3.94-3.94 3.94v0C26.75 61.26 24.99 59.5 24.99 57.32zm0-25.67c0-2.2 1.76-3.94 3.94-3.94v0c2.17.0 3.94 1.73 3.94 3.94v0c0 2.14-1.76 3.94-3.94 3.94v0C26.75 35.59 24.99 33.79 24.99 31.65z"/></g><g><path class="st0" d="M28.92 498c-.5.0-1.01-.1-1.51-.32-.47-.19-.88-.47-1.26-.85-.38-.38-.66-.79-.85-1.26-.22-.5-.32-1.01-.32-1.51.0-1.04.44-2.08 1.17-2.81.19-.16.38-.34.6-.47.22-.16.44-.29.66-.38.25-.1.5-.16.76-.22 1.26-.25 2.61.16 3.56 1.07.72.73 1.13 1.77 1.13 2.81.0.5-.09 1.01-.28 1.51-.19.47-.5.88-.85 1.26-.38.38-.82.66-1.29.85C29.96 497.9 29.46 498 28.92 498z"/></g></g><g><g><path class="st0" d="M50.94 9.89c-.54.0-1.04-.1-1.51-.32-.47-.19-.91-.47-1.29-.85-.35-.35-.63-.79-.85-1.26-.19-.47-.28-1.01-.28-1.51.0-.25.03-.54.06-.79.06-.25.13-.47.22-.73.09-.22.22-.47.38-.66.13-.22.32-.44.47-.6 1.48-1.48 4.13-1.48 5.58.0.72.73 1.17 1.73 1.17 2.77.0.5-.1 1.04-.32 1.51-.19.47-.47.91-.85 1.26C52.99 9.47 51.98 9.89 50.94 9.89z"/></g><g><path class="st0" d="M47.01 468.36c0-2.17 1.76-3.94 3.94-3.94v0c2.17.0 3.94 1.76 3.94 3.94v0c0 2.17-1.76 3.94-3.94 3.94v0C48.77 472.3 47.01 470.53 47.01 468.36zM47.01 442.69c0-2.21 1.76-3.94 3.94-3.94v0c2.17.0 3.94 1.73 3.94 3.94v0c0 2.18-1.76 3.94-3.94 3.94v0C48.77 446.62 47.01 444.86 47.01 442.69zM47.01 416.98c0-2.17 1.76-3.94 3.94-3.94v0c2.17.0 3.94 1.77 3.94 3.94v0c0 2.17-1.76 3.94-3.94 3.94v0C48.77 420.92 47.01 419.16 47.01 416.98zM47.01 391.28c0-2.17 1.76-3.94 3.94-3.94v0c2.17.0 3.94 1.77 3.94 3.94v0c0 2.17-1.76 3.94-3.94 3.94v0C48.77 395.21 47.01 393.45 47.01 391.28zM47.01 365.61c0-2.17 1.76-3.94 3.94-3.94v0c2.17.0 3.94 1.76 3.94 3.94v0c0 2.17-1.76 3.94-3.94 3.94v0C48.77 369.54 47.01 367.78 47.01 365.61zM47.01 339.9c0-2.17 1.76-3.94 3.94-3.94v0c2.17.0 3.94 1.76 3.94 3.94v0c0 2.18-1.76 3.94-3.94 3.94v0C48.77 343.84 47.01 342.08 47.01 339.9zM47.01 314.23c0-2.17 1.76-3.94 3.94-3.94v0c2.17.0 3.94 1.77 3.94 3.94v0c0 2.18-1.76 3.94-3.94 3.94v0C48.77 318.17 47.01 316.41 47.01 314.23zM47.01 288.53c0-2.18 1.76-3.94 3.94-3.94v0c2.17.0 3.94 1.76 3.94 3.94v0c0 2.17-1.76 3.94-3.94 3.94v0C48.77 292.47 47.01 290.7 47.01 288.53zM47.01 262.86c0-2.18 1.76-3.94 3.94-3.94v0c2.17.0 3.94 1.76 3.94 3.94v0c0 2.17-1.76 3.94-3.94 3.94v0C48.77 266.79 47.01 265.03 47.01 262.86zM47.01 237.15c0-2.17 1.76-3.94 3.94-3.94v0c2.17.0 3.94 1.77 3.94 3.94v0c0 2.18-1.76 3.94-3.94 3.94v0C48.77 241.09 47.01 239.33 47.01 237.15zM47.01 211.45c0-2.17 1.76-3.94 3.94-3.94v0c2.17.0 3.94 1.77 3.94 3.94v0c0 2.17-1.76 3.94-3.94 3.94v0C48.77 215.39 47.01 213.62 47.01 211.45zM47.01 185.78c0-2.18 1.76-3.94 3.94-3.94v0c2.17.0 3.94 1.76 3.94 3.94v0c0 2.17-1.76 3.94-3.94 3.94v0C48.77 189.72 47.01 187.95 47.01 185.78zM47.01 160.07c0-2.17 1.76-3.94 3.94-3.94v0c2.17.0 3.94 1.76 3.94 3.94v0c0 2.17-1.76 3.94-3.94 3.94v0C48.77 164.01 47.01 162.25 47.01 160.07zM47.01 134.4c0-2.17 1.76-3.94 3.94-3.94v0c2.17.0 3.94 1.77 3.94 3.94v0c0 2.17-1.76 3.94-3.94 3.94v0C48.77 138.34 47.01 136.58 47.01 134.4zM47.01 108.7c0-2.17 1.76-3.94 3.94-3.94v0c2.17.0 3.94 1.77 3.94 3.94v0c0 2.18-1.76 3.94-3.94 3.94v0C48.77 112.63 47.01 110.87 47.01 108.7zM47.01 83c0-2.14 1.76-3.94 3.94-3.94v0c2.17.0 3.94 1.79 3.94 3.94v0c0 2.2-1.76 3.94-3.94 3.94v0C48.77 86.93 47.01 85.2 47.01 83zm0-25.68c0-2.18 1.76-3.94 3.94-3.94v0c2.17.0 3.94 1.76 3.94 3.94v0c0 2.17-1.76 3.94-3.94 3.94v0C48.77 61.26 47.01 59.5 47.01 57.32zm0-25.67c0-2.2 1.76-3.94 3.94-3.94v0c2.17.0 3.94 1.73 3.94 3.94v0c0 2.14-1.76 3.94-3.94 3.94v0C48.77 35.59 47.01 33.79 47.01 31.65z"/></g><g><path class="st0" d="M50.94 498c-.54.0-1.04-.1-1.51-.32-.47-.19-.91-.47-1.29-.85-.35-.38-.66-.79-.85-1.26-.19-.5-.28-1.01-.28-1.51.0-1.04.41-2.08 1.13-2.81.19-.16.38-.34.6-.47.22-.16.44-.29.69-.38.22-.1.47-.16.72-.22 1.26-.25 2.65.16 3.56 1.07.72.73 1.17 1.77 1.17 2.81.0.5-.1 1.01-.32 1.51-.19.47-.47.88-.85 1.26-.38.38-.79.66-1.26.85C51.95 497.9 51.45 498 50.94 498z"/></g></g><g><g><path class="st0" d="M72.93 9.89c-.54.0-1.04-.1-1.51-.32-.47-.19-.91-.47-1.26-.85-.38-.35-.66-.79-.85-1.26-.22-.47-.31-1.01-.31-1.51.0-1.04.41-2.05 1.16-2.77.16-.19.38-.34.6-.5.19-.16.44-.25.66-.38.25-.1.5-.16.76-.22.5-.1 1.01-.1 1.51.0.25.06.5.13.76.22.22.13.47.22.66.38.22.16.44.31.63.5.72.73 1.13 1.73 1.13 2.77.0.5-.1 1.04-.28 1.51-.22.47-.5.91-.85 1.26C74.98 9.47 74 9.89 72.93 9.89z"/></g><g><path class="st0" d="M68.99 468.36c0-2.17 1.76-3.94 3.94-3.94v0c2.17.0 3.94 1.76 3.94 3.94v0c0 2.17-1.76 3.94-3.94 3.94v0C70.76 472.3 68.99 470.53 68.99 468.36zM68.99 442.69c0-2.21 1.76-3.94 3.94-3.94v0c2.17.0 3.94 1.73 3.94 3.94v0c0 2.18-1.76 3.94-3.94 3.94v0C70.76 446.62 68.99 444.86 68.99 442.69zM68.99 416.98c0-2.17 1.76-3.94 3.94-3.94v0c2.17.0 3.94 1.77 3.94 3.94v0c0 2.17-1.76 3.94-3.94 3.94v0C70.76 420.92 68.99 419.16 68.99 416.98zM68.99 391.28c0-2.17 1.76-3.94 3.94-3.94v0c2.17.0 3.94 1.77 3.94 3.94v0c0 2.17-1.76 3.94-3.94 3.94v0C70.76 395.21 68.99 393.45 68.99 391.28zM68.99 365.61c0-2.17 1.76-3.94 3.94-3.94v0c2.17.0 3.94 1.76 3.94 3.94v0c0 2.17-1.76 3.94-3.94 3.94v0C70.76 369.54 68.99 367.78 68.99 365.61zM68.99 339.9c0-2.17 1.76-3.94 3.94-3.94v0c2.17.0 3.94 1.76 3.94 3.94v0c0 2.18-1.76 3.94-3.94 3.94v0C70.76 343.84 68.99 342.08 68.99 339.9zM68.99 314.23c0-2.17 1.76-3.94 3.94-3.94v0c2.17.0 3.94 1.77 3.94 3.94v0c0 2.18-1.76 3.94-3.94 3.94v0C70.76 318.17 68.99 316.41 68.99 314.23zM68.99 288.53c0-2.18 1.76-3.94 3.94-3.94v0c2.17.0 3.94 1.76 3.94 3.94v0c0 2.17-1.76 3.94-3.94 3.94v0C70.76 292.47 68.99 290.7 68.99 288.53zM68.99 262.86c0-2.18 1.76-3.94 3.94-3.94v0c2.17.0 3.94 1.76 3.94 3.94v0c0 2.17-1.76 3.94-3.94 3.94v0C70.76 266.79 68.99 265.03 68.99 262.86zM68.99 237.15c0-2.17 1.76-3.94 3.94-3.94v0c2.17.0 3.94 1.77 3.94 3.94v0c0 2.18-1.76 3.94-3.94 3.94v0C70.76 241.09 68.99 239.33 68.99 237.15zM68.99 211.45c0-2.17 1.76-3.94 3.94-3.94v0c2.17.0 3.94 1.77 3.94 3.94v0c0 2.17-1.76 3.94-3.94 3.94v0C70.76 215.39 68.99 213.62 68.99 211.45zM68.99 185.78c0-2.18 1.76-3.94 3.94-3.94v0c2.17.0 3.94 1.76 3.94 3.94v0c0 2.17-1.76 3.94-3.94 3.94v0C70.76 189.72 68.99 187.95 68.99 185.78zM68.99 160.07c0-2.17 1.76-3.94 3.94-3.94v0c2.17.0 3.94 1.76 3.94 3.94v0c0 2.17-1.76 3.94-3.94 3.94v0C70.76 164.01 68.99 162.25 68.99 160.07zM68.99 134.4c0-2.17 1.76-3.94 3.94-3.94v0c2.17.0 3.94 1.77 3.94 3.94v0c0 2.17-1.76 3.94-3.94 3.94v0C70.76 138.34 68.99 136.58 68.99 134.4zM68.99 108.7c0-2.17 1.76-3.94 3.94-3.94v0c2.17.0 3.94 1.77 3.94 3.94v0c0 2.18-1.76 3.94-3.94 3.94v0C70.76 112.63 68.99 110.87 68.99 108.7zM68.99 83c0-2.14 1.76-3.94 3.94-3.94v0c2.17.0 3.94 1.79 3.94 3.94v0c0 2.2-1.76 3.94-3.94 3.94v0C70.76 86.93 68.99 85.2 68.99 83zm0-25.68c0-2.18 1.76-3.94 3.94-3.94v0c2.17.0 3.94 1.76 3.94 3.94v0c0 2.17-1.76 3.94-3.94 3.94v0C70.76 61.26 68.99 59.5 68.99 57.32zm0-25.67c0-2.2 1.76-3.94 3.94-3.94v0c2.17.0 3.94 1.73 3.94 3.94v0c0 2.14-1.76 3.94-3.94 3.94v0C70.76 35.59 68.99 33.79 68.99 31.65z"/></g><g><path class="st0" d="M72.93 498c-1.04.0-2.05-.41-2.77-1.17-.38-.38-.66-.79-.85-1.26-.22-.5-.31-1.01-.31-1.51.0-1.04.41-2.08 1.16-2.81.91-.91 2.27-1.32 3.53-1.07.25.06.5.13.76.22.22.09.47.22.66.38.22.13.44.31.6.47.19.19.35.41.5.6.13.22.25.44.35.69.13.22.19.47.25.73.03.25.06.54.06.79.0.5-.1 1.01-.28 1.51-.22.47-.5.88-.88 1.26C74.98 497.59 73.97 498 72.93 498z"/></g></g><g><g><path class="st0" d="M94.92 9.89c-1.04.0-2.05-.41-2.77-1.17-.38-.35-.66-.79-.85-1.26-.19-.5-.32-1.01-.32-1.51.0-1.04.44-2.05 1.16-2.77.19-.19.38-.34.6-.5.22-.16.44-.25.69-.38.22-.1.47-.16.72-.22.5-.1 1.04-.1 1.54.0.25.06.5.13.72.22.25.13.47.22.69.38.22.16.41.31.6.5.72.73 1.13 1.73 1.13 2.77.0.5-.1 1.01-.28 1.51-.19.47-.5.91-.85 1.26-.38.38-.82.66-1.29.85C95.96 9.79 95.45 9.89 94.92 9.89z"/></g><g><path class="st0" d="M90.98 468.36c0-2.17 1.76-3.94 3.94-3.94v0c2.17.0 3.94 1.76 3.94 3.94v0c0 2.17-1.76 3.94-3.94 3.94v0C92.74 472.3 90.98 470.53 90.98 468.36zM90.98 442.69c0-2.21 1.76-3.94 3.94-3.94v0c2.17.0 3.94 1.73 3.94 3.94v0c0 2.18-1.76 3.94-3.94 3.94v0C92.74 446.62 90.98 444.86 90.98 442.69zM90.98 416.98c0-2.17 1.76-3.94 3.94-3.94v0c2.17.0 3.94 1.77 3.94 3.94v0c0 2.17-1.76 3.94-3.94 3.94v0C92.74 420.92 90.98 419.16 90.98 416.98zM90.98 391.28c0-2.17 1.76-3.94 3.94-3.94v0c2.17.0 3.94 1.77 3.94 3.94v0c0 2.17-1.76 3.94-3.94 3.94v0C92.74 395.21 90.98 393.45 90.98 391.28zM90.98 365.61c0-2.17 1.76-3.94 3.94-3.94v0c2.17.0 3.94 1.76 3.94 3.94v0c0 2.17-1.76 3.94-3.94 3.94v0C92.74 369.54 90.98 367.78 90.98 365.61zM90.98 339.9c0-2.17 1.76-3.94 3.94-3.94v0c2.17.0 3.94 1.76 3.94 3.94v0c0 2.18-1.76 3.94-3.94 3.94v0C92.74 343.84 90.98 342.08 90.98 339.9zM90.98 314.23c0-2.17 1.76-3.94 3.94-3.94v0c2.17.0 3.94 1.77 3.94 3.94v0c0 2.18-1.76 3.94-3.94 3.94v0C92.74 318.17 90.98 316.41 90.98 314.23zM90.98 288.53c0-2.18 1.76-3.94 3.94-3.94v0c2.17.0 3.94 1.76 3.94 3.94v0c0 2.17-1.76 3.94-3.94 3.94v0C92.74 292.47 90.98 290.7 90.98 288.53zM90.98 262.86c0-2.18 1.76-3.94 3.94-3.94v0c2.17.0 3.94 1.76 3.94 3.94v0c0 2.17-1.76 3.94-3.94 3.94v0C92.74 266.79 90.98 265.03 90.98 262.86zM90.98 237.15c0-2.17 1.76-3.94 3.94-3.94v0c2.17.0 3.94 1.77 3.94 3.94v0c0 2.18-1.76 3.94-3.94 3.94v0C92.74 241.09 90.98 239.33 90.98 237.15zM90.98 211.45c0-2.17 1.76-3.94 3.94-3.94v0c2.17.0 3.94 1.77 3.94 3.94v0c0 2.17-1.76 3.94-3.94 3.94v0C92.74 215.39 90.98 213.62 90.98 211.45zM90.98 185.78c0-2.18 1.76-3.94 3.94-3.94v0c2.17.0 3.94 1.76 3.94 3.94v0c0 2.17-1.76 3.94-3.94 3.94v0C92.74 189.72 90.98 187.95 90.98 185.78zM90.98 160.07c0-2.17 1.76-3.94 3.94-3.94v0c2.17.0 3.94 1.76 3.94 3.94v0c0 2.17-1.76 3.94-3.94 3.94v0C92.74 164.01 90.98 162.25 90.98 160.07zM90.98 134.4c0-2.17 1.76-3.94 3.94-3.94v0c2.17.0 3.94 1.77 3.94 3.94v0c0 2.17-1.76 3.94-3.94 3.94v0C92.74 138.34 90.98 136.58 90.98 134.4zM90.98 108.7c0-2.17 1.76-3.94 3.94-3.94v0c2.17.0 3.94 1.77 3.94 3.94v0c0 2.18-1.76 3.94-3.94 3.94v0C92.74 112.63 90.98 110.87 90.98 108.7zM90.98 83c0-2.14 1.76-3.94 3.94-3.94v0c2.17.0 3.94 1.79 3.94 3.94v0c0 2.2-1.76 3.94-3.94 3.94v0C92.74 86.93 90.98 85.2 90.98 83zm0-25.68c0-2.18 1.76-3.94 3.94-3.94v0c2.17.0 3.94 1.76 3.94 3.94v0c0 2.17-1.76 3.94-3.94 3.94v0C92.74 61.26 90.98 59.5 90.98 57.32zm0-25.67c0-2.2 1.76-3.94 3.94-3.94v0c2.17.0 3.94 1.73 3.94 3.94v0c0 2.14-1.76 3.94-3.94 3.94v0C92.74 35.59 90.98 33.79 90.98 31.65z"/></g><g><path class="st0" d="M94.92 498c-1.04.0-2.02-.41-2.77-1.17-.38-.38-.66-.79-.85-1.26-.19-.5-.32-1.01-.32-1.51.0-.25.03-.54.09-.79.03-.25.13-.5.22-.73.09-.25.22-.47.35-.69.16-.19.32-.41.5-.6.91-.91 2.27-1.32 3.56-1.07.25.06.5.13.72.22.25.09.47.22.69.38.22.13.41.31.6.47.19.19.35.41.47.6.16.22.28.44.38.69.1.22.16.47.22.73.06.25.06.54.06.79.0.5-.1 1.01-.28 1.51-.19.47-.47.88-.85 1.26C96.96 497.59 95.99 498 94.92 498z"/></g></g><g><g><path class="st0" d="M116.93 9.89c-1.07.0-2.05-.41-2.8-1.17-.35-.35-.63-.79-.85-1.26C113.09 6.99 113 6.45 113 5.95c0-.25.03-.54.06-.79.06-.25.13-.47.22-.73.12-.22.22-.47.38-.66.13-.22.32-.44.47-.6.19-.19.41-.34.6-.5.22-.16.44-.25.69-.38.22-.1.47-.16.72-.22 1.29-.25 2.65.16 3.56 1.1.76.73 1.17 1.73 1.17 2.77.0.5-.09 1.04-.32 1.51-.19.47-.47.91-.85 1.26C118.98 9.47 117.97 9.89 116.93 9.89z"/></g><g><path class="st0" d="M113 468.36c0-2.17 1.76-3.94 3.94-3.94v0c2.17.0 3.94 1.76 3.94 3.94v0c0 2.17-1.76 3.94-3.94 3.94v0C114.76 472.3 113 470.53 113 468.36zM113 442.69c0-2.21 1.76-3.94 3.94-3.94v0c2.17.0 3.94 1.73 3.94 3.94v0c0 2.18-1.76 3.94-3.94 3.94v0C114.76 446.62 113 444.86 113 442.69zM113 416.98c0-2.17 1.76-3.94 3.94-3.94v0c2.17.0 3.94 1.77 3.94 3.94v0c0 2.17-1.76 3.94-3.94 3.94v0C114.76 420.92 113 419.16 113 416.98zM113 391.28c0-2.17 1.76-3.94 3.94-3.94v0c2.17.0 3.94 1.77 3.94 3.94v0c0 2.17-1.76 3.94-3.94 3.94v0C114.76 395.21 113 393.45 113 391.28zM113 365.61c0-2.17 1.76-3.94 3.94-3.94v0c2.17.0 3.94 1.76 3.94 3.94v0c0 2.17-1.76 3.94-3.94 3.94v0C114.76 369.54 113 367.78 113 365.61zM113 339.9c0-2.17 1.76-3.94 3.94-3.94v0c2.17.0 3.94 1.76 3.94 3.94v0c0 2.18-1.76 3.94-3.94 3.94v0C114.76 343.84 113 342.08 113 339.9zM113 314.23c0-2.17 1.76-3.94 3.94-3.94v0c2.17.0 3.94 1.77 3.94 3.94v0c0 2.18-1.76 3.94-3.94 3.94v0C114.76 318.17 113 316.41 113 314.23zM113 288.53c0-2.18 1.76-3.94 3.94-3.94v0c2.17.0 3.94 1.76 3.94 3.94v0c0 2.17-1.76 3.94-3.94 3.94v0C114.76 292.47 113 290.7 113 288.53zM113 262.86c0-2.18 1.76-3.94 3.94-3.94v0c2.17.0 3.94 1.76 3.94 3.94v0c0 2.17-1.76 3.94-3.94 3.94v0C114.76 266.79 113 265.03 113 262.86zM113 237.15c0-2.17 1.76-3.94 3.94-3.94v0c2.17.0 3.94 1.77 3.94 3.94v0c0 2.18-1.76 3.94-3.94 3.94v0C114.76 241.09 113 239.33 113 237.15zM113 211.45c0-2.17 1.76-3.94 3.94-3.94v0c2.17.0 3.94 1.77 3.94 3.94v0c0 2.17-1.76 3.94-3.94 3.94v0C114.76 215.39 113 213.62 113 211.45zM113 185.78c0-2.18 1.76-3.94 3.94-3.94v0c2.17.0 3.94 1.76 3.94 3.94v0c0 2.17-1.76 3.94-3.94 3.94v0C114.76 189.72 113 187.95 113 185.78zM113 160.07c0-2.17 1.76-3.94 3.94-3.94v0c2.17.0 3.94 1.76 3.94 3.94v0c0 2.17-1.76 3.94-3.94 3.94v0C114.76 164.01 113 162.25 113 160.07zM113 134.4c0-2.17 1.76-3.94 3.94-3.94v0c2.17.0 3.94 1.77 3.94 3.94v0c0 2.17-1.76 3.94-3.94 3.94v0C114.76 138.34 113 136.58 113 134.4zM113 108.7c0-2.17 1.76-3.94 3.94-3.94v0c2.17.0 3.94 1.77 3.94 3.94v0c0 2.18-1.76 3.94-3.94 3.94v0C114.76 112.63 113 110.87 113 108.7zM113 83c0-2.14 1.76-3.94 3.94-3.94v0c2.17.0 3.94 1.79 3.94 3.94v0c0 2.2-1.76 3.94-3.94 3.94v0C114.76 86.93 113 85.2 113 83zm0-25.68c0-2.18 1.76-3.94 3.94-3.94v0c2.17.0 3.94 1.76 3.94 3.94v0c0 2.17-1.76 3.94-3.94 3.94v0C114.76 61.26 113 59.5 113 57.32zm0-25.67c0-2.2 1.76-3.94 3.94-3.94v0c2.17.0 3.94 1.73 3.94 3.94v0c0 2.14-1.76 3.94-3.94 3.94v0C114.76 35.59 113 33.79 113 31.65z"/></g><g><path class="st0" d="M116.93 498c-1.07.0-2.05-.41-2.8-1.17-.35-.38-.63-.79-.85-1.26-.19-.5-.28-1.01-.28-1.51.0-.25.03-.54.06-.79.06-.25.13-.5.22-.73.09-.25.22-.47.38-.69.13-.19.32-.41.47-.6.91-.91 2.3-1.32 3.56-1.07.25.06.5.13.76.22.22.09.44.22.66.38.22.13.41.31.6.47.19.19.35.41.5.6.13.22.25.44.35.69.1.22.19.47.22.73.06.25.09.54.09.79.0.5-.09 1.01-.32 1.51-.19.47-.47.88-.85 1.26C118.98 497.59 117.97 498 116.93 498z"/></g></g><g><g><path class="st0" d="M138.92 9.89c-.5.0-1.04-.1-1.51-.32-.47-.19-.88-.47-1.26-.85-.38-.35-.66-.79-.85-1.26-.22-.47-.32-1.01-.32-1.51.0-1.04.41-2.05 1.17-2.77.16-.19.38-.34.6-.5.19-.16.44-.25.66-.38.25-.1.5-.16.76-.22.5-.1 1.01-.1 1.54.0.22.06.47.13.72.22.22.13.47.22.69.38.19.16.41.31.6.5.72.73 1.13 1.73 1.13 2.77.0.5-.09 1.04-.28 1.51-.22.47-.5.91-.85 1.26C140.97 9.47 139.99 9.89 138.92 9.89z"/></g><g><path class="st0" d="M134.98 468.36c0-2.17 1.76-3.94 3.94-3.94v0c2.17.0 3.94 1.76 3.94 3.94v0c0 2.17-1.76 3.94-3.94 3.94v0C136.75 472.3 134.98 470.53 134.98 468.36zM134.98 442.69c0-2.21 1.76-3.94 3.94-3.94v0c2.17.0 3.94 1.73 3.94 3.94v0c0 2.18-1.76 3.94-3.94 3.94v0C136.75 446.62 134.98 444.86 134.98 442.69zM134.98 416.98c0-2.17 1.76-3.94 3.94-3.94v0c2.17.0 3.94 1.77 3.94 3.94v0c0 2.17-1.76 3.94-3.94 3.94v0C136.75 420.92 134.98 419.16 134.98 416.98zM134.98 391.28c0-2.17 1.76-3.94 3.94-3.94v0c2.17.0 3.94 1.77 3.94 3.94v0c0 2.17-1.76 3.94-3.94 3.94v0C136.75 395.21 134.98 393.45 134.98 391.28zM134.98 365.61c0-2.17 1.76-3.94 3.94-3.94v0c2.17.0 3.94 1.76 3.94 3.94v0c0 2.17-1.76 3.94-3.94 3.94v0C136.75 369.54 134.98 367.78 134.98 365.61zM134.98 339.9c0-2.17 1.76-3.94 3.94-3.94v0c2.17.0 3.94 1.76 3.94 3.94v0c0 2.18-1.76 3.94-3.94 3.94v0C136.75 343.84 134.98 342.08 134.98 339.9zM134.98 314.23c0-2.17 1.76-3.94 3.94-3.94v0c2.17.0 3.94 1.77 3.94 3.94v0c0 2.18-1.76 3.94-3.94 3.94v0C136.75 318.17 134.98 316.41 134.98 314.23zM134.98 288.53c0-2.18 1.76-3.94 3.94-3.94v0c2.17.0 3.94 1.76 3.94 3.94v0c0 2.17-1.76 3.94-3.94 3.94v0C136.75 292.47 134.98 290.7 134.98 288.53zM134.98 262.86c0-2.18 1.76-3.94 3.94-3.94v0c2.17.0 3.94 1.76 3.94 3.94v0c0 2.17-1.76 3.94-3.94 3.94v0C136.75 266.79 134.98 265.03 134.98 262.86zM134.98 237.15c0-2.17 1.76-3.94 3.94-3.94v0c2.17.0 3.94 1.77 3.94 3.94v0c0 2.18-1.76 3.94-3.94 3.94v0C136.75 241.09 134.98 239.33 134.98 237.15zM134.98 211.45c0-2.17 1.76-3.94 3.94-3.94v0c2.17.0 3.94 1.77 3.94 3.94v0c0 2.17-1.76 3.94-3.94 3.94v0C136.75 215.39 134.98 213.62 134.98 211.45zM134.98 185.78c0-2.18 1.76-3.94 3.94-3.94v0c2.17.0 3.94 1.76 3.94 3.94v0c0 2.17-1.76 3.94-3.94 3.94v0C136.75 189.72 134.98 187.95 134.98 185.78zM134.98 160.07c0-2.17 1.76-3.94 3.94-3.94v0c2.17.0 3.94 1.76 3.94 3.94v0c0 2.17-1.76 3.94-3.94 3.94v0C136.75 164.01 134.98 162.25 134.98 160.07zM134.98 134.4c0-2.17 1.76-3.94 3.94-3.94v0c2.17.0 3.94 1.77 3.94 3.94v0c0 2.17-1.76 3.94-3.94 3.94v0C136.75 138.34 134.98 136.58 134.98 134.4zM134.98 108.7c0-2.17 1.76-3.94 3.94-3.94v0c2.17.0 3.94 1.77 3.94 3.94v0c0 2.18-1.76 3.94-3.94 3.94v0C136.75 112.63 134.98 110.87 134.98 108.7zM134.98 83c0-2.14 1.76-3.94 3.94-3.94v0c2.17.0 3.94 1.79 3.94 3.94v0c0 2.2-1.76 3.94-3.94 3.94v0C136.75 86.93 134.98 85.2 134.98 83zm0-25.68c0-2.18 1.76-3.94 3.94-3.94v0c2.17.0 3.94 1.76 3.94 3.94v0c0 2.17-1.76 3.94-3.94 3.94v0C136.75 61.26 134.98 59.5 134.98 57.32zm0-25.67c0-2.2 1.76-3.94 3.94-3.94v0c2.17.0 3.94 1.73 3.94 3.94v0c0 2.14-1.76 3.94-3.94 3.94v0C136.75 35.59 134.98 33.79 134.98 31.65z"/></g><g><path class="st0" d="M138.92 498c-1.04.0-2.05-.41-2.77-1.17-.76-.73-1.17-1.73-1.17-2.77.0-.25.03-.54.1-.79.03-.25.13-.5.22-.73.1-.25.22-.47.35-.69.16-.19.32-.41.5-.6.91-.91 2.27-1.32 3.56-1.07.25.06.47.13.72.22.22.09.47.22.69.38.19.13.41.31.6.47.16.19.35.41.47.6.16.22.25.44.38.69.09.22.16.47.22.73.03.25.06.54.06.79.0.5-.09 1.01-.28 1.51-.22.47-.5.88-.85 1.26C140.97 497.59 139.99 498 138.92 498z"/></g></g><g><g><path class="st0" d="M160.91 9.89c-.5.0-1.01-.1-1.48-.32-.47-.19-.91-.47-1.29-.85-.38-.35-.66-.79-.85-1.26C157.09 6.99 157 6.45 157 5.95c0-.25.0-.54.06-.79.06-.25.13-.47.22-.73.1-.22.22-.47.38-.66.13-.22.28-.44.47-.6 1.48-1.48 4.13-1.48 5.58.0.72.73 1.17 1.73 1.17 2.77.0.5-.13 1.04-.32 1.51-.19.47-.47.91-.85 1.26C162.95 9.47 161.98 9.89 160.91 9.89z"/></g><g><path class="st0" d="M157 468.36c0-2.17 1.76-3.94 3.94-3.94v0c2.14.0 3.94 1.76 3.94 3.94v0c0 2.17-1.8 3.94-3.94 3.94v0C158.76 472.3 157 470.53 157 468.36zM157 442.69c0-2.21 1.76-3.94 3.94-3.94v0c2.14.0 3.94 1.73 3.94 3.94v0c0 2.18-1.8 3.94-3.94 3.94v0C158.76 446.62 157 444.86 157 442.69zM157 416.98c0-2.17 1.76-3.94 3.94-3.94v0c2.14.0 3.94 1.77 3.94 3.94v0c0 2.17-1.8 3.94-3.94 3.94v0C158.76 420.92 157 419.16 157 416.98zM157 391.28c0-2.17 1.76-3.94 3.94-3.94v0c2.14.0 3.94 1.77 3.94 3.94v0c0 2.17-1.8 3.94-3.94 3.94v0C158.76 395.21 157 393.45 157 391.28zM157 365.61c0-2.17 1.76-3.94 3.94-3.94v0c2.14.0 3.94 1.76 3.94 3.94v0c0 2.17-1.8 3.94-3.94 3.94v0C158.76 369.54 157 367.78 157 365.61zM157 339.9c0-2.17 1.76-3.94 3.94-3.94v0c2.14.0 3.94 1.76 3.94 3.94v0c0 2.18-1.8 3.94-3.94 3.94v0C158.76 343.84 157 342.08 157 339.9zM157 314.23c0-2.17 1.76-3.94 3.94-3.94v0c2.14.0 3.94 1.77 3.94 3.94v0c0 2.18-1.8 3.94-3.94 3.94v0C158.76 318.17 157 316.41 157 314.23zM157 288.53c0-2.18 1.76-3.94 3.94-3.94v0c2.14.0 3.94 1.76 3.94 3.94v0c0 2.17-1.8 3.94-3.94 3.94v0C158.76 292.47 157 290.7 157 288.53zM157 262.86c0-2.18 1.76-3.94 3.94-3.94v0c2.14.0 3.94 1.76 3.94 3.94v0c0 2.17-1.8 3.94-3.94 3.94v0C158.76 266.79 157 265.03 157 262.86zM157 237.15c0-2.17 1.76-3.94 3.94-3.94v0c2.14.0 3.94 1.77 3.94 3.94v0c0 2.18-1.8 3.94-3.94 3.94v0C158.76 241.09 157 239.33 157 237.15zM157 211.45c0-2.17 1.76-3.94 3.94-3.94v0c2.14.0 3.94 1.77 3.94 3.94v0c0 2.17-1.8 3.94-3.94 3.94v0C158.76 215.39 157 213.62 157 211.45zM157 185.78c0-2.18 1.76-3.94 3.94-3.94v0c2.14.0 3.94 1.76 3.94 3.94v0c0 2.17-1.8 3.94-3.94 3.94v0C158.76 189.72 157 187.95 157 185.78zM157 160.07c0-2.17 1.76-3.94 3.94-3.94v0c2.14.0 3.94 1.76 3.94 3.94v0c0 2.17-1.8 3.94-3.94 3.94v0C158.76 164.01 157 162.25 157 160.07zM157 134.4c0-2.17 1.76-3.94 3.94-3.94v0c2.14.0 3.94 1.77 3.94 3.94v0c0 2.17-1.8 3.94-3.94 3.94v0C158.76 138.34 157 136.58 157 134.4zM157 108.7c0-2.17 1.76-3.94 3.94-3.94v0c2.14.0 3.94 1.77 3.94 3.94v0c0 2.18-1.8 3.94-3.94 3.94v0C158.76 112.63 157 110.87 157 108.7zM157 83c0-2.14 1.76-3.94 3.94-3.94v0c2.14.0 3.94 1.79 3.94 3.94v0c0 2.2-1.8 3.94-3.94 3.94v0C158.76 86.93 157 85.2 157 83zm0-25.68c0-2.18 1.76-3.94 3.94-3.94v0c2.14.0 3.94 1.76 3.94 3.94v0c0 2.17-1.8 3.94-3.94 3.94v0C158.76 61.26 157 59.5 157 57.32zm0-25.67c0-2.2 1.76-3.94 3.94-3.94v0c2.14.0 3.94 1.73 3.94 3.94v0c0 2.14-1.8 3.94-3.94 3.94v0C158.76 35.59 157 33.79 157 31.65z"/></g><g><path class="st0" d="M160.94 498c-1.07.0-2.05-.41-2.8-1.17-.72-.73-1.13-1.73-1.13-2.77.0-.25.0-.54.06-.79.06-.25.13-.5.22-.73.1-.25.22-.47.38-.69.13-.19.28-.41.47-.6.91-.91 2.27-1.32 3.56-1.07.25.06.5.13.72.22.25.09.47.22.69.38.22.13.41.31.6.47.19.19.35.41.5.6.13.22.25.44.35.69.09.22.16.47.22.73.06.25.1.54.1.79.0.5-.13 1.01-.32 1.51-.19.47-.47.88-.85 1.26C162.95 497.59 161.98 498 160.94 498z"/></g></g><g><g><path class="st0" d="M182.92 9.89c-.54.0-1.04-.1-1.51-.32-.47-.19-.91-.47-1.29-.85-.35-.35-.63-.79-.85-1.26-.19-.47-.28-1.01-.28-1.51.0-1.04.41-2.05 1.13-2.77.19-.19.41-.34.6-.5.22-.16.44-.25.69-.38.25-.1.47-.16.72-.22 1.29-.22 2.68.16 3.56 1.1.76.73 1.17 1.73 1.17 2.77.0.5-.1 1.04-.32 1.51-.19.47-.47.91-.85 1.26C184.97 9.47 183.96 9.89 182.92 9.89z"/></g><g><path class="st0" d="M178.99 468.36c0-2.17 1.76-3.94 3.94-3.94v0c2.17.0 3.94 1.76 3.94 3.94v0c0 2.17-1.76 3.94-3.94 3.94v0C180.75 472.3 178.99 470.53 178.99 468.36zM178.99 442.69c0-2.21 1.76-3.94 3.94-3.94v0c2.17.0 3.94 1.73 3.94 3.94v0c0 2.18-1.76 3.94-3.94 3.94v0C180.75 446.62 178.99 444.86 178.99 442.69zM178.99 416.98c0-2.17 1.76-3.94 3.94-3.94v0c2.17.0 3.94 1.77 3.94 3.94v0c0 2.17-1.76 3.94-3.94 3.94v0C180.75 420.92 178.99 419.16 178.99 416.98zM178.99 391.28c0-2.17 1.76-3.94 3.94-3.94v0c2.17.0 3.94 1.77 3.94 3.94v0c0 2.17-1.76 3.94-3.94 3.94v0C180.75 395.21 178.99 393.45 178.99 391.28zM178.99 365.61c0-2.17 1.76-3.94 3.94-3.94v0c2.17.0 3.94 1.76 3.94 3.94v0c0 2.17-1.76 3.94-3.94 3.94v0C180.75 369.54 178.99 367.78 178.99 365.61zM178.99 339.9c0-2.17 1.76-3.94 3.94-3.94v0c2.17.0 3.94 1.76 3.94 3.94v0c0 2.18-1.76 3.94-3.94 3.94v0C180.75 343.84 178.99 342.08 178.99 339.9zM178.99 314.23c0-2.17 1.76-3.94 3.94-3.94v0c2.17.0 3.94 1.77 3.94 3.94v0c0 2.18-1.76 3.94-3.94 3.94v0C180.75 318.17 178.99 316.41 178.99 314.23zM178.99 288.53c0-2.18 1.76-3.94 3.94-3.94v0c2.17.0 3.94 1.76 3.94 3.94v0c0 2.17-1.76 3.94-3.94 3.94v0C180.75 292.47 178.99 290.7 178.99 288.53zM178.99 262.86c0-2.18 1.76-3.94 3.94-3.94v0c2.17.0 3.94 1.76 3.94 3.94v0c0 2.17-1.76 3.94-3.94 3.94v0C180.75 266.79 178.99 265.03 178.99 262.86zM178.99 237.15c0-2.17 1.76-3.94 3.94-3.94v0c2.17.0 3.94 1.77 3.94 3.94v0c0 2.18-1.76 3.94-3.94 3.94v0C180.75 241.09 178.99 239.33 178.99 237.15zM178.99 211.45c0-2.17 1.76-3.94 3.94-3.94v0c2.17.0 3.94 1.77 3.94 3.94v0c0 2.17-1.76 3.94-3.94 3.94v0C180.75 215.39 178.99 213.62 178.99 211.45zM178.99 185.78c0-2.18 1.76-3.94 3.94-3.94v0c2.17.0 3.94 1.76 3.94 3.94v0c0 2.17-1.76 3.94-3.94 3.94v0C180.75 189.72 178.99 187.95 178.99 185.78zM178.99 160.07c0-2.17 1.76-3.94 3.94-3.94v0c2.17.0 3.94 1.76 3.94 3.94v0c0 2.17-1.76 3.94-3.94 3.94v0C180.75 164.01 178.99 162.25 178.99 160.07zM178.99 134.4c0-2.17 1.76-3.94 3.94-3.94v0c2.17.0 3.94 1.77 3.94 3.94v0c0 2.17-1.76 3.94-3.94 3.94v0C180.75 138.34 178.99 136.58 178.99 134.4zM178.99 108.7c0-2.17 1.76-3.94 3.94-3.94v0c2.17.0 3.94 1.77 3.94 3.94v0c0 2.18-1.76 3.94-3.94 3.94v0C180.75 112.63 178.99 110.87 178.99 108.7zM178.99 83c0-2.14 1.76-3.94 3.94-3.94v0c2.17.0 3.94 1.79 3.94 3.94v0c0 2.2-1.76 3.94-3.94 3.94v0C180.75 86.93 178.99 85.2 178.99 83zm0-25.68c0-2.18 1.76-3.94 3.94-3.94v0c2.17.0 3.94 1.76 3.94 3.94v0c0 2.17-1.76 3.94-3.94 3.94v0C180.75 61.26 178.99 59.5 178.99 57.32zm0-25.67c0-2.2 1.76-3.94 3.94-3.94v0c2.17.0 3.94 1.73 3.94 3.94v0c0 2.14-1.76 3.94-3.94 3.94v0C180.75 35.59 178.99 33.79 178.99 31.65z"/></g><g><path class="st0" d="M182.92 498c-.54.0-1.04-.1-1.51-.32-.47-.19-.91-.47-1.29-.85-.35-.38-.63-.79-.85-1.26-.19-.5-.28-1.01-.28-1.51.0-.25.03-.54.06-.79.06-.25.13-.5.22-.73.1-.25.22-.47.38-.69.13-.19.32-.41.47-.6.19-.16.41-.34.6-.47.22-.16.44-.29.69-.38.25-.1.47-.16.72-.22 1.29-.25 2.65.16 3.56 1.07.76.73 1.17 1.77 1.17 2.81.0.5-.1 1.01-.32 1.51-.19.47-.47.88-.85 1.26-.38.38-.79.66-1.26.85C183.96 497.9 183.43 498 182.92 498z"/></g></g><g><g><path class="st0" d="M204.91 9.89c-.5.0-1.04-.1-1.51-.32-.47-.19-.88-.47-1.26-.85-.38-.35-.66-.79-.85-1.26-.22-.47-.32-1.01-.32-1.51.0-1.04.44-2.05 1.17-2.77.19-.19.38-.34.6-.5.22-.16.44-.25.66-.38.25-.1.5-.16.76-.22 1.29-.22 2.65.16 3.56 1.1.72.73 1.13 1.73 1.13 2.77.0.5-.1 1.04-.28 1.51-.19.47-.5.91-.85 1.26C206.96 9.47 205.98 9.89 204.91 9.89z"/></g><g><path class="st0" d="M200.97 468.36c0-2.17 1.76-3.94 3.94-3.94v0c2.17.0 3.94 1.76 3.94 3.94v0c0 2.17-1.76 3.94-3.94 3.94v0C202.74 472.3 200.97 470.53 200.97 468.36zM200.97 442.69c0-2.21 1.76-3.94 3.94-3.94v0c2.17.0 3.94 1.73 3.94 3.94v0c0 2.18-1.76 3.94-3.94 3.94v0C202.74 446.62 200.97 444.86 200.97 442.69zM200.97 416.98c0-2.17 1.76-3.94 3.94-3.94v0c2.17.0 3.94 1.77 3.94 3.94v0c0 2.17-1.76 3.94-3.94 3.94v0C202.74 420.92 200.97 419.16 200.97 416.98zM200.97 391.28c0-2.17 1.76-3.94 3.94-3.94v0c2.17.0 3.94 1.77 3.94 3.94v0c0 2.17-1.76 3.94-3.94 3.94v0C202.74 395.21 200.97 393.45 200.97 391.28zM200.97 365.61c0-2.17 1.76-3.94 3.94-3.94v0c2.17.0 3.94 1.76 3.94 3.94v0c0 2.17-1.76 3.94-3.94 3.94v0C202.74 369.54 200.97 367.78 200.97 365.61zM200.97 339.9c0-2.17 1.76-3.94 3.94-3.94v0c2.17.0 3.94 1.76 3.94 3.94v0c0 2.18-1.76 3.94-3.94 3.94v0C202.74 343.84 200.97 342.08 200.97 339.9zM200.97 314.23c0-2.17 1.76-3.94 3.94-3.94v0c2.17.0 3.94 1.77 3.94 3.94v0c0 2.18-1.76 3.94-3.94 3.94v0C202.74 318.17 200.97 316.41 200.97 314.23zM200.97 288.53c0-2.18 1.76-3.94 3.94-3.94v0c2.17.0 3.94 1.76 3.94 3.94v0c0 2.17-1.76 3.94-3.94 3.94v0C202.74 292.47 200.97 290.7 200.97 288.53zM200.97 262.86c0-2.18 1.76-3.94 3.94-3.94v0c2.17.0 3.94 1.76 3.94 3.94v0c0 2.17-1.76 3.94-3.94 3.94v0C202.74 266.79 200.97 265.03 200.97 262.86zM200.97 237.15c0-2.17 1.76-3.94 3.94-3.94v0c2.17.0 3.94 1.77 3.94 3.94v0c0 2.18-1.76 3.94-3.94 3.94v0C202.74 241.09 200.97 239.33 200.97 237.15zM200.97 211.45c0-2.17 1.76-3.94 3.94-3.94v0c2.17.0 3.94 1.77 3.94 3.94v0c0 2.17-1.76 3.94-3.94 3.94v0C202.74 215.39 200.97 213.62 200.97 211.45zM200.97 185.78c0-2.18 1.76-3.94 3.94-3.94v0c2.17.0 3.94 1.76 3.94 3.94v0c0 2.17-1.76 3.94-3.94 3.94v0C202.74 189.72 200.97 187.95 200.97 185.78zM200.97 160.07c0-2.17 1.76-3.94 3.94-3.94v0c2.17.0 3.94 1.76 3.94 3.94v0c0 2.17-1.76 3.94-3.94 3.94v0C202.74 164.01 200.97 162.25 200.97 160.07zM200.97 134.4c0-2.17 1.76-3.94 3.94-3.94v0c2.17.0 3.94 1.77 3.94 3.94v0c0 2.17-1.76 3.94-3.94 3.94v0C202.74 138.34 200.97 136.58 200.97 134.4zM200.97 108.7c0-2.17 1.76-3.94 3.94-3.94v0c2.17.0 3.94 1.77 3.94 3.94v0c0 2.18-1.76 3.94-3.94 3.94v0C202.74 112.63 200.97 110.87 200.97 108.7zM200.97 83c0-2.14 1.76-3.94 3.94-3.94v0c2.17.0 3.94 1.79 3.94 3.94v0c0 2.2-1.76 3.94-3.94 3.94v0C202.74 86.93 200.97 85.2 200.97 83zm0-25.68c0-2.18 1.76-3.94 3.94-3.94v0c2.17.0 3.94 1.76 3.94 3.94v0c0 2.17-1.76 3.94-3.94 3.94v0C202.74 61.26 200.97 59.5 200.97 57.32zm0-25.67c0-2.2 1.76-3.94 3.94-3.94v0c2.17.0 3.94 1.73 3.94 3.94v0c0 2.14-1.76 3.94-3.94 3.94v0C202.74 35.59 200.97 33.79 200.97 31.65z"/></g><g><path class="st0" d="M204.91 498c-.5.0-1.01-.1-1.51-.32-.47-.19-.88-.47-1.26-.85-.38-.38-.66-.79-.85-1.26-.22-.5-.32-1.01-.32-1.51.0-.25.03-.54.09-.79.03-.25.13-.5.22-.73.09-.25.22-.47.35-.69.16-.19.32-.41.5-.6.19-.16.38-.34.6-.47.22-.16.44-.29.66-.38.25-.1.5-.16.76-.22 1.26-.25 2.61.16 3.56 1.07.72.73 1.13 1.77 1.13 2.81.0.5-.1 1.01-.28 1.51-.22.47-.5.88-.85 1.26-.38.38-.82.66-1.29.85C205.95 497.9 205.45 498 204.91 498z"/></g></g><g><g><path class="st0" d="M226.93 9.89c-.54.0-1.04-.1-1.51-.32-.47-.19-.91-.47-1.29-.85-.35-.35-.66-.79-.85-1.26-.19-.47-.28-1.01-.28-1.51.0-.25.0-.54.06-.79.06-.25.13-.47.22-.73.09-.22.22-.47.38-.66.13-.22.28-.44.47-.6 1.48-1.48 4.13-1.48 5.58.0.72.73 1.16 1.73 1.16 2.77.0.5-.13 1.04-.31 1.51-.19.47-.47.91-.85 1.26C228.94 9.47 227.97 9.89 226.93 9.89z"/></g><g><path class="st0" d="M222.99 468.36c0-2.17 1.76-3.94 3.94-3.94v0c2.17.0 3.94 1.76 3.94 3.94v0c0 2.17-1.76 3.94-3.94 3.94v0C224.75 472.3 222.99 470.53 222.99 468.36zM222.99 442.69c0-2.21 1.76-3.94 3.94-3.94v0c2.17.0 3.94 1.73 3.94 3.94v0c0 2.18-1.76 3.94-3.94 3.94v0C224.75 446.62 222.99 444.86 222.99 442.69zM222.99 416.98c0-2.17 1.76-3.94 3.94-3.94v0c2.17.0 3.94 1.77 3.94 3.94v0c0 2.17-1.76 3.94-3.94 3.94v0C224.75 420.92 222.99 419.16 222.99 416.98zM222.99 391.28c0-2.17 1.76-3.94 3.94-3.94v0c2.17.0 3.94 1.77 3.94 3.94v0c0 2.17-1.76 3.94-3.94 3.94v0C224.75 395.21 222.99 393.45 222.99 391.28zM222.99 365.61c0-2.17 1.76-3.94 3.94-3.94v0c2.17.0 3.94 1.76 3.94 3.94v0c0 2.17-1.76 3.94-3.94 3.94v0C224.75 369.54 222.99 367.78 222.99 365.61zM222.99 339.9c0-2.17 1.76-3.94 3.94-3.94v0c2.17.0 3.94 1.76 3.94 3.94v0c0 2.18-1.76 3.94-3.94 3.94v0C224.75 343.84 222.99 342.08 222.99 339.9zM222.99 314.23c0-2.17 1.76-3.94 3.94-3.94v0c2.17.0 3.94 1.77 3.94 3.94v0c0 2.18-1.76 3.94-3.94 3.94v0C224.75 318.17 222.99 316.41 222.99 314.23zM222.99 288.53c0-2.18 1.76-3.94 3.94-3.94v0c2.17.0 3.94 1.76 3.94 3.94v0c0 2.17-1.76 3.94-3.94 3.94v0C224.75 292.47 222.99 290.7 222.99 288.53zM222.99 262.86c0-2.18 1.76-3.94 3.94-3.94v0c2.17.0 3.94 1.76 3.94 3.94v0c0 2.17-1.76 3.94-3.94 3.94v0C224.75 266.79 222.99 265.03 222.99 262.86zM222.99 237.15c0-2.17 1.76-3.94 3.94-3.94v0c2.17.0 3.94 1.77 3.94 3.94v0c0 2.18-1.76 3.94-3.94 3.94v0C224.75 241.09 222.99 239.33 222.99 237.15zM222.99 211.45c0-2.17 1.76-3.94 3.94-3.94v0c2.17.0 3.94 1.77 3.94 3.94v0c0 2.17-1.76 3.94-3.94 3.94v0C224.75 215.39 222.99 213.62 222.99 211.45zM222.99 185.78c0-2.18 1.76-3.94 3.94-3.94v0c2.17.0 3.94 1.76 3.94 3.94v0c0 2.17-1.76 3.94-3.94 3.94v0C224.75 189.72 222.99 187.95 222.99 185.78zM222.99 160.07c0-2.17 1.76-3.94 3.94-3.94v0c2.17.0 3.94 1.76 3.94 3.94v0c0 2.17-1.76 3.94-3.94 3.94v0C224.75 164.01 222.99 162.25 222.99 160.07zM222.99 134.4c0-2.17 1.76-3.94 3.94-3.94v0c2.17.0 3.94 1.77 3.94 3.94v0c0 2.17-1.76 3.94-3.94 3.94v0C224.75 138.34 222.99 136.58 222.99 134.4zM222.99 108.7c0-2.17 1.76-3.94 3.94-3.94v0c2.17.0 3.94 1.77 3.94 3.94v0c0 2.18-1.76 3.94-3.94 3.94v0C224.75 112.63 222.99 110.87 222.99 108.7zM222.99 83c0-2.14 1.76-3.94 3.94-3.94v0c2.17.0 3.94 1.79 3.94 3.94v0c0 2.2-1.76 3.94-3.94 3.94v0C224.75 86.93 222.99 85.2 222.99 83zm0-25.68c0-2.18 1.76-3.94 3.94-3.94v0c2.17.0 3.94 1.76 3.94 3.94v0c0 2.17-1.76 3.94-3.94 3.94v0C224.75 61.26 222.99 59.5 222.99 57.32zm0-25.67c0-2.2 1.76-3.94 3.94-3.94v0c2.17.0 3.94 1.73 3.94 3.94v0c0 2.14-1.76 3.94-3.94 3.94v0C224.75 35.59 222.99 33.79 222.99 31.65z"/></g><g><path class="st0" d="M226.93 498c-1.07.0-2.05-.41-2.8-1.17-.38-.38-.66-.79-.85-1.26-.19-.5-.28-1.01-.28-1.51.0-.25.0-.54.06-.79.06-.25.13-.5.22-.73.09-.25.22-.47.38-.69.13-.19.28-.41.47-.6.19-.16.38-.34.6-.47.22-.16.44-.29.69-.38.22-.1.47-.16.72-.22.5-.1 1.04-.1 1.54.0.25.06.5.13.72.22.25.09.47.22.69.38.22.13.41.31.6.47.19.19.35.41.47.6.16.22.28.44.38.69.09.22.19.47.22.73.06.25.09.54.09.79.0.5-.13 1.01-.31 1.51-.19.47-.47.88-.85 1.26-.38.38-.79.66-1.29.85C227.94 497.9 227.43 498 226.93 498z"/></g></g></g><circle class="st1" cx="250" cy="250" r="248"/></svg>